<svg width="25" height="29" viewBox="0 0 25 29" fill="none" xmlns="http://www.w3.org/2000/svg">
<path d="M1.87342 10.6604C-0.578269 14.9148 0.980314 21.3712 3.69148 25.2859C5.04478 27.2431 6.41491 28.9999 8.29155 28.9999C8.32692 28.9999 8.36238 28.9992 8.3987 28.9978C9.2804 28.9626 9.91754 28.6912 10.5336 28.4288C11.2252 28.1341 11.9405 27.8293 13.0625 27.8293C14.1299 27.8293 14.811 28.1242 15.4698 28.4092C16.119 28.6901 16.7877 28.9807 17.7758 28.9621C19.8896 28.9228 21.1875 27.027 22.3326 25.3546C23.5275 23.6085 24.1269 21.9131 24.3291 21.2652L24.3373 21.2394C24.3758 21.1243 24.3214 20.9986 24.211 20.9479C24.208 20.9464 24.1968 20.9418 24.1936 20.9405C23.8214 20.7882 20.5561 19.3397 20.5217 15.3915C20.4899 12.1838 22.9713 10.4852 23.469 10.1773L23.4922 10.1628C23.5461 10.1281 23.5837 10.0731 23.5964 10.0101C23.6092 9.94727 23.5958 9.88186 23.5597 9.82899C21.8469 7.32244 19.2217 6.94468 18.1648 6.89923C18.0114 6.88392 17.8531 6.87622 17.6941 6.87622C16.4527 6.87622 15.2635 7.34507 14.3081 7.72178C13.6487 7.98183 13.079 8.20642 12.6861 8.20642C12.2447 8.20642 11.6718 7.97908 11.0084 7.71589C10.1213 7.3638 9.11581 6.96484 8.05137 6.96484C8.02598 6.96484 8.00098 6.96512 7.97635 6.9656C5.50137 7.00201 3.16273 8.41798 1.87342 10.6604Z" fill="white"/>
<path d="M18.1673 0.000182694C16.6685 0.0612253 14.8706 0.983806 13.796 2.2425C12.8827 3.30048 11.9906 5.06444 12.2256 6.84247C12.2404 6.95372 12.3309 7.03958 12.4428 7.04823C12.544 7.05612 12.6472 7.06011 12.7501 7.06021C14.2156 7.06021 15.7965 6.24944 16.8762 4.94397C18.0125 3.56547 18.5871 1.79638 18.4133 0.21174C18.3996 0.087563 18.2903 -0.00466649 18.1673 0.000182694Z" fill="white"/>
</svg>
