<svg width="25" height="29" viewBox="0 0 25 29" fill="none" xmlns="http://www.w3.org/2000/svg">
<path d="M1.87342 10.6601C-0.578269 14.9146 0.980314 21.3709 3.69148 25.2857C5.04478 27.2428 6.41491 28.9996 8.29155 28.9996C8.32692 28.9996 8.36238 28.999 8.3987 28.9976C9.2804 28.9624 9.91754 28.6909 10.5336 28.4286C11.2252 28.1338 11.9405 27.8291 13.0625 27.8291C14.1299 27.8291 14.811 28.1239 15.4698 28.409C16.119 28.6899 16.7877 28.9804 17.7758 28.9619C19.8896 28.9225 21.1875 27.0268 22.3326 25.3544C23.5275 23.6082 24.1269 21.9128 24.3291 21.2649L24.3373 21.2392C24.3758 21.124 24.3214 20.9983 24.211 20.9476C24.208 20.9462 24.1968 20.9415 24.1936 20.9402C23.8214 20.788 20.5561 19.3394 20.5217 15.3912C20.4899 12.1835 22.9713 10.4849 23.469 10.177L23.4922 10.1626C23.5461 10.1279 23.5837 10.0728 23.5964 10.0099C23.6092 9.94703 23.5958 9.88161 23.5597 9.82875C21.8469 7.3222 19.2217 6.94444 18.1648 6.89899C18.0114 6.88368 17.8531 6.87598 17.6941 6.87598C16.4527 6.87598 15.2635 7.34483 14.3081 7.72154C13.6487 7.98159 13.079 8.20617 12.6861 8.20617C12.2447 8.20617 11.6718 7.97883 11.0084 7.71565C10.1213 7.36356 9.11581 6.96459 8.05137 6.96459C8.02598 6.96459 8.00098 6.96488 7.97635 6.96535C5.50137 7.00177 3.16273 8.41773 1.87342 10.6601Z" fill="#022B3A"/>
<path d="M18.1673 0.000182694C16.6685 0.0612253 14.8706 0.983806 13.796 2.2425C12.8827 3.30048 11.9906 5.06444 12.2256 6.84247C12.2404 6.95372 12.3309 7.03958 12.4428 7.04823C12.544 7.05612 12.6472 7.06011 12.7501 7.06021C14.2156 7.06021 15.7965 6.24944 16.8762 4.94397C18.0125 3.56547 18.5871 1.79638 18.4133 0.21174C18.3996 0.087563 18.2903 -0.00466649 18.1673 0.000182694Z" fill="#022B3A"/>
</svg>
