<svg width="252" height="34" viewBox="0 0 252 34" fill="none" xmlns="http://www.w3.org/2000/svg">
<path d="M29.526 0.0846148C29.8386 3.17938 29.0571 6.42151 27.1913 8.79785C25.3255 11.1742 22.7758 12.1689 20.3434 11.7729C20.0308 8.67811 20.8123 5.43598 22.6782 3.05964C24.544 0.683305 27.0936 -0.311442 29.526 0.0846148Z" fill="url(#paint0_linear_83_39)"/>
<path d="M15.8481 6.92284C15.7212 8.22849 16.0346 9.60053 16.7883 10.6037C17.542 11.607 18.5643 12.0274 19.5494 11.8578C19.6762 10.5521 19.3628 9.18007 18.6091 8.17685C17.8554 7.17364 16.8256 6.75317 15.8481 6.92284Z" fill="url(#paint1_linear_83_39)"/>
<path d="M97.7588 24.7701L97.9992 24.8001C98.1595 25.8819 98.4499 26.8835 98.8706 27.805C99.2913 28.7064 99.8322 29.4877 100.493 30.1488C101.154 30.8099 101.926 31.3307 102.807 31.7113C103.708 32.0719 104.71 32.2522 105.812 32.2522C106.793 32.2522 107.715 32.152 108.576 31.9517C109.458 31.7314 110.219 31.4008 110.86 30.9601C111.521 30.5194 112.042 29.9685 112.423 29.3074C112.803 28.6263 112.994 27.815 112.994 26.8735C112.994 25.992 112.753 25.2609 112.272 24.6799C111.812 24.0789 111.201 23.5681 110.439 23.1474C109.678 22.7267 108.807 22.3661 107.825 22.0657C106.844 21.7451 105.832 21.4346 104.79 21.1341C103.769 20.8136 102.767 20.4631 101.785 20.0824C100.804 19.7018 99.9323 19.2311 99.1711 18.6701C98.4099 18.1092 97.7889 17.4381 97.3081 16.6569C96.8473 15.8556 96.617 14.874 96.617 13.7121C96.617 12.4701 96.9074 11.4284 97.4884 10.587C98.0893 9.72562 98.8606 9.0345 99.8021 8.51365C100.764 7.97277 101.845 7.58214 103.047 7.34175C104.249 7.10136 105.471 6.98116 106.713 6.98116C108.356 6.98116 109.868 7.15144 111.251 7.49199C112.633 7.83254 114.035 8.35339 115.458 9.05453L113.955 14.253L113.655 14.2229C113.615 13.2413 113.404 12.3298 113.024 11.4885C112.663 10.6271 112.172 9.8959 111.551 9.29492C110.93 8.67391 110.199 8.19313 109.358 7.85258C108.536 7.49199 107.645 7.3117 106.683 7.3117C105.802 7.3117 104.961 7.43189 104.159 7.67228C103.358 7.89264 102.647 8.22318 102.026 8.6639C101.405 9.10461 100.914 9.6555 100.553 10.3166C100.193 10.9777 100.012 11.7289 100.012 12.5702C100.012 13.3916 100.243 14.0827 100.704 14.6436C101.184 15.1845 101.805 15.6452 102.567 16.0259C103.348 16.3864 104.229 16.707 105.211 16.9874C106.213 17.2679 107.224 17.5583 108.246 17.8588C109.288 18.1393 110.299 18.4598 111.281 18.8204C112.282 19.181 113.164 19.6417 113.925 20.2026C114.706 20.7435 115.327 21.4246 115.788 22.246C116.269 23.0473 116.509 24.0389 116.509 25.2208C116.509 26.603 116.219 27.7649 115.638 28.7064C115.057 29.648 114.276 30.4092 113.294 30.9902C112.312 31.5511 111.171 31.9517 109.868 32.1921C108.586 32.4325 107.244 32.5527 105.842 32.5527C104.119 32.5527 102.476 32.3524 100.914 31.9517C99.3714 31.5511 97.869 30.9 96.4066 29.9985L97.7588 24.7701Z" fill="#022B3A"/>
<path d="M118.679 12.1496C119.821 12.2097 120.933 12.2297 122.015 12.2097C123.096 12.1896 124.058 12.1596 124.899 12.1195V22.0657C124.899 23.3277 124.969 24.5797 125.11 25.8218C125.27 27.0437 125.56 28.1355 125.981 29.0971C126.422 30.0586 127.033 30.8399 127.814 31.4409C128.595 32.0218 129.627 32.2923 130.909 32.2522C132.011 32.2322 132.972 31.9117 133.794 31.2906C134.615 30.6696 135.296 29.8784 135.837 28.9168C136.378 27.9552 136.789 26.8835 137.069 25.7016C137.349 24.5196 137.5 23.3477 137.52 22.1859V15.4249C137.5 14.4032 137.339 13.652 137.039 13.1712C136.738 12.6904 136.107 12.45 135.146 12.45V12.1496C135.827 12.1896 136.418 12.2197 136.919 12.2397C137.42 12.2397 137.87 12.2397 138.271 12.2397C138.812 12.2397 139.313 12.2397 139.773 12.2397C140.254 12.2197 140.805 12.1896 141.426 12.1496V28.2858C141.426 28.6664 141.426 29.0871 141.426 29.5478C141.446 30.0086 141.516 30.4393 141.636 30.8399C141.757 31.2205 141.957 31.5511 142.237 31.8315C142.518 32.0919 142.929 32.2222 143.469 32.2222V32.5527C142.428 32.5527 141.526 32.4726 140.765 32.3123C140.024 32.152 139.413 31.8916 138.932 31.531C138.451 31.1504 138.091 30.6396 137.85 29.9985C137.63 29.3575 137.52 28.5562 137.52 27.5946V25.2508C137.339 26.1523 137.069 27.0337 136.708 27.8951C136.368 28.7565 135.917 29.5278 135.356 30.2089C134.815 30.89 134.164 31.4509 133.403 31.8916C132.662 32.3123 131.82 32.5327 130.879 32.5527C129.336 32.6128 127.954 32.4125 126.732 31.9517C125.53 31.491 124.509 30.8199 123.667 29.9384C122.846 29.037 122.205 27.9452 121.744 26.6631C121.303 25.381 121.073 23.9487 121.053 22.3661V15.5751C121.033 14.5134 120.873 13.7321 120.572 13.2313C120.292 12.7105 119.661 12.45 118.679 12.45V12.1496Z" fill="#022B3A"/>
<path d="M145.647 32.2522C146.628 32.2522 147.259 32.0018 147.54 31.501C147.84 30.9801 148.001 30.1788 148.021 29.0971V16.4165C148.021 15.7955 148.011 15.2446 147.991 14.7638C147.991 14.283 147.93 13.8824 147.81 13.5619C147.71 13.2213 147.53 12.9609 147.269 12.7806C147.009 12.6003 146.628 12.4901 146.128 12.45V12.1496C146.548 12.1095 147.009 12.0494 147.51 11.9693C148.031 11.8891 148.541 11.789 149.042 11.6688C149.563 11.5486 150.074 11.4184 150.575 11.2781C151.076 11.1179 151.526 10.9476 151.927 10.7673V19.0908C152.047 18.1092 152.308 17.1777 152.708 16.2963C153.129 15.4149 153.7 14.6536 154.421 14.0126C155.162 13.3715 156.054 12.8807 157.095 12.5402C158.157 12.1996 159.399 12.0694 160.821 12.1496L160.761 16.0559C160.301 15.9557 159.84 15.8856 159.379 15.8456C158.918 15.7855 158.468 15.7554 158.027 15.7554C157.145 15.7554 156.334 15.8656 155.593 16.0859C154.852 16.3063 154.211 16.6368 153.67 17.0776C153.129 17.5183 152.698 18.0792 152.378 18.7603C152.077 19.4414 151.927 20.2427 151.927 21.1642V29.2774C151.947 30.299 152.107 31.0503 152.408 31.531C152.728 32.0118 153.359 32.2522 154.301 32.2522V32.5527C153.299 32.5126 152.488 32.4826 151.867 32.4626C151.246 32.4225 150.665 32.4025 150.124 32.4025C149.543 32.4025 148.942 32.4225 148.321 32.4626C147.7 32.4826 146.869 32.5126 145.827 32.5527H145.647V32.2522Z" fill="#022B3A"/>
<path d="M162.197 32.2522C163.179 32.2522 163.81 32.0018 164.09 31.501C164.391 30.9801 164.551 30.1788 164.571 29.0971V11.188C164.571 10.567 164.561 10.0161 164.541 9.53531C164.541 9.05453 164.481 8.65388 164.361 8.33336C164.26 7.9928 164.08 7.73238 163.82 7.55209C163.559 7.3718 163.179 7.26162 162.678 7.22155V6.92106C163.099 6.881 163.559 6.8209 164.06 6.74077C164.581 6.66064 165.092 6.56048 165.593 6.44028C166.113 6.32009 166.624 6.18988 167.125 6.04965C167.626 5.88939 168.077 5.71911 168.477 5.53882V24.1691C168.718 23.2876 169.068 22.5565 169.529 21.9755C170.01 21.3745 170.541 20.8437 171.122 20.3829C171.703 19.9222 172.313 19.5015 172.955 19.1209C173.616 18.7403 174.247 18.3296 174.848 17.8889C175.469 17.4281 176.04 16.9073 176.56 16.3263C177.081 15.7454 177.512 15.0242 177.852 14.1628C177.973 13.7421 177.963 13.3816 177.822 13.0811C177.682 12.7605 177.332 12.5402 176.771 12.42L176.801 12.1496C177.342 12.1896 177.792 12.2197 178.153 12.2397C178.534 12.2597 178.914 12.2698 179.295 12.2698C179.615 12.2698 179.956 12.2597 180.316 12.2397C180.697 12.2197 181.158 12.1896 181.699 12.1496H181.789V12.42C181.208 12.4801 180.717 12.5702 180.316 12.6904C179.936 12.8106 179.605 12.9809 179.325 13.2013C179.044 13.4016 178.774 13.682 178.514 14.0426C178.273 14.3832 177.993 14.8039 177.672 15.3047C177.272 16.0259 176.801 16.6368 176.26 17.1377C175.739 17.6184 175.188 18.0592 174.607 18.4598C174.026 18.8605 173.435 19.2411 172.834 19.6017C172.253 19.9422 171.703 20.3228 171.182 20.7435C171.642 20.6434 172.053 20.5933 172.414 20.5933C172.955 20.5933 173.455 20.6734 173.916 20.8337C174.397 20.9739 174.808 21.1542 175.148 21.3745C175.709 21.7151 176.21 22.1658 176.651 22.7267C177.091 23.2876 177.502 23.9087 177.883 24.5898C178.263 25.2508 178.634 25.952 178.994 26.6932C179.375 27.4144 179.776 28.1255 180.196 28.8266C180.617 29.5077 181.078 30.1488 181.579 30.7498C182.099 31.3507 182.69 31.8516 183.351 32.2522V32.5527C182.75 32.5327 182.25 32.5226 181.849 32.5226C181.468 32.5226 181.098 32.5226 180.737 32.5226C180.377 32.5226 179.996 32.5327 179.595 32.5527C179.215 32.5527 178.724 32.5527 178.123 32.5527C177.822 32.0318 177.512 31.4108 177.191 30.6897C176.891 29.9485 176.58 29.1772 176.26 28.3759C175.939 27.5546 175.609 26.7433 175.268 25.942C174.948 25.1407 174.617 24.4095 174.277 23.7484C173.936 23.0673 173.586 22.4964 173.225 22.0356C172.884 21.5749 172.534 21.2844 172.173 21.1642C171.953 21.0841 171.733 21.044 171.512 21.044C171.092 21.044 170.691 21.2143 170.31 21.5548C169.789 22.0957 169.359 22.7468 169.018 23.508C168.698 24.2492 168.517 25.1807 168.477 26.3025V29.2774C168.497 30.299 168.658 31.0503 168.958 31.531C169.279 32.0118 169.91 32.2522 170.851 32.2522V32.5527C169.349 32.4926 167.886 32.4626 166.464 32.4626C165.062 32.4626 163.639 32.4926 162.197 32.5527V32.2522Z" fill="#022B3A"/>
<path d="M187.228 21.4346C186.627 20.9739 186.176 20.423 185.876 19.782C185.595 19.1409 185.465 18.4798 185.485 17.7987C185.505 17.0976 185.685 16.4165 186.026 15.7554C186.386 15.0743 186.907 14.4733 187.588 13.9525C188.269 13.4116 189.121 12.9809 190.142 12.6604C191.184 12.3198 192.406 12.1496 193.808 12.1496C194.55 12.1496 195.221 12.1896 195.822 12.2698C196.443 12.3298 197.024 12.42 197.565 12.5402C198.125 12.6404 198.656 12.7706 199.157 12.9308C199.658 13.0911 200.169 13.2614 200.69 13.4417L199.578 17.7987H199.337C199.237 17.0175 199.037 16.2963 198.736 15.6352C198.456 14.9741 198.085 14.4132 197.625 13.9525C197.184 13.4717 196.663 13.1011 196.062 12.8407C195.461 12.5602 194.79 12.42 194.049 12.42C192.707 12.42 191.605 12.6604 190.743 13.1412C189.902 13.6219 189.291 14.1929 188.91 14.8539C188.55 15.495 188.42 16.1661 188.52 16.8672C188.62 17.5483 188.961 18.0992 189.541 18.5199C190.042 18.8805 190.753 19.181 191.675 19.4214C192.616 19.6417 193.608 19.8721 194.65 20.1125C195.691 20.3328 196.713 20.6033 197.715 20.9238C198.736 21.2243 199.578 21.6249 200.239 22.1258C200.86 22.6065 201.331 23.1975 201.651 23.8986C201.992 24.5998 202.152 25.341 202.132 26.1223C202.112 26.8835 201.912 27.6547 201.531 28.436C201.15 29.1972 200.559 29.8884 199.758 30.5094C198.977 31.1104 197.975 31.6012 196.753 31.9818C195.531 32.3624 194.079 32.5527 192.396 32.5527C190.974 32.5527 189.662 32.4125 188.46 32.132C187.258 31.8315 186.016 31.3507 184.734 30.6897L185.966 26.2725H186.116C186.216 27.174 186.446 27.9953 186.807 28.7365C187.168 29.4577 187.628 30.0787 188.189 30.5995C188.77 31.1204 189.441 31.531 190.203 31.8315C190.984 32.112 191.825 32.2522 192.727 32.2522C194.229 32.2522 195.431 31.9718 196.333 31.4108C197.234 30.8299 197.875 30.1588 198.256 29.3976C198.656 28.6163 198.807 27.835 198.706 27.0538C198.626 26.2725 198.336 25.6615 197.835 25.2208C197.374 24.8201 196.693 24.5096 195.792 24.2893C194.91 24.0489 193.959 23.8185 192.937 23.5982C191.915 23.3778 190.894 23.1074 189.872 22.7868C188.85 22.4663 187.969 22.0156 187.228 21.4346Z" fill="#022B3A"/>
<path d="M204.306 32.2522C205.288 32.2522 205.919 32.0018 206.2 31.501C206.5 30.9801 206.66 30.1788 206.68 29.0971V11.188C206.68 10.567 206.67 10.0161 206.65 9.53531C206.65 9.05453 206.59 8.65388 206.47 8.33336C206.37 7.9928 206.19 7.73238 205.929 7.55209C205.669 7.3718 205.288 7.26162 204.787 7.22155V6.92106C205.208 6.881 205.669 6.8209 206.17 6.74077C206.69 6.66064 207.201 6.56048 207.702 6.44028C208.223 6.32009 208.734 6.18988 209.234 6.04965C209.735 5.88939 210.186 5.71911 210.587 5.53882V19.4514C210.767 18.4899 211.027 17.5784 211.368 16.717C211.709 15.8355 212.139 15.0643 212.66 14.4032C213.181 13.7421 213.802 13.2113 214.523 12.8106C215.264 12.3899 216.116 12.1696 217.077 12.1496C218.62 12.0895 220.002 12.2998 221.224 12.7806C222.446 13.2413 223.478 13.9325 224.319 14.8539C225.18 15.7554 225.841 16.8572 226.302 18.1593C226.763 19.4614 227.013 20.9038 227.053 22.4863V29.1271C227.073 30.1889 227.224 30.9801 227.504 31.501C227.805 32.0018 228.446 32.2522 229.427 32.2522V32.5527C228.726 32.5126 228.025 32.4826 227.324 32.4626C226.643 32.4425 225.982 32.4325 225.341 32.4325C224.7 32.4325 224.099 32.4425 223.538 32.4626C222.997 32.4626 222.526 32.4726 222.125 32.4926C221.645 32.5126 221.214 32.5327 220.833 32.5527V32.2522C221.374 32.2522 221.795 32.1921 222.095 32.0719C222.416 31.9517 222.656 31.7714 222.817 31.531C222.977 31.2706 223.077 30.9401 223.117 30.5394C223.177 30.1388 223.207 29.668 223.207 29.1271V22.8169C223.207 21.4747 223.117 20.1726 222.937 18.9105C222.756 17.6485 222.436 16.5367 221.975 15.5751C221.514 14.5935 220.883 13.8223 220.082 13.2614C219.301 12.7005 218.289 12.43 217.047 12.45C215.945 12.4901 214.994 12.8206 214.193 13.4417C213.391 14.0426 212.73 14.8239 212.209 15.7855C211.688 16.747 211.288 17.8188 211.007 19.0007C210.747 20.1826 210.607 21.3545 210.587 22.5164V29.2774C210.607 30.299 210.767 31.0503 211.067 31.531C211.388 32.0118 212.019 32.2522 212.961 32.2522V32.5527C212.54 32.5126 211.999 32.4926 211.338 32.4926C210.677 32.4726 209.946 32.4626 209.144 32.4626C208.363 32.4626 207.552 32.4726 206.71 32.4926C205.869 32.4926 205.068 32.5126 204.306 32.5527V32.2522Z" fill="#022B3A"/>
<path d="M231.597 26.6331C231.597 25.6916 231.797 24.8802 232.198 24.1991C232.599 23.498 233.139 22.907 233.821 22.4262C234.502 21.9455 235.293 21.5648 236.194 21.2844C237.096 20.9839 238.047 20.7435 239.049 20.5632C238.128 20.3829 237.366 20.0524 236.765 19.5716C236.184 19.0908 235.774 18.5399 235.533 17.9189C235.293 17.2779 235.213 16.6268 235.293 15.9658C235.393 15.2846 235.653 14.6636 236.074 14.1027C236.495 13.5218 237.066 13.051 237.787 12.6904C238.528 12.3298 239.42 12.1496 240.461 12.1496C241.703 12.1496 242.865 12.2698 243.947 12.5101C245.049 12.7305 246.02 13.1011 246.862 13.6219C247.703 14.1428 248.384 14.8339 248.905 15.6953C249.446 16.5367 249.766 17.5784 249.867 18.8204C249.907 19.1609 249.927 19.5115 249.927 19.8721C249.927 20.2127 249.927 20.5632 249.927 20.9238V26.603C249.927 27.3242 249.927 28.0253 249.927 28.7064C249.947 29.3675 250.017 29.9585 250.137 30.4793C250.257 31.0002 250.458 31.4209 250.738 31.7414C251.018 32.0619 251.439 32.2222 252 32.2222V32.5527C250.958 32.5527 250.067 32.4726 249.326 32.3123C248.585 32.152 247.973 31.8916 247.493 31.531C247.012 31.1504 246.651 30.6396 246.411 29.9985C246.191 29.3575 246.08 28.5562 246.08 27.5946C245.52 29.1772 244.638 30.3992 243.436 31.2606C242.234 32.122 240.712 32.5627 238.869 32.5827C236.485 32.6228 234.672 32.102 233.43 31.0202C232.208 29.9384 231.597 28.4761 231.597 26.6331ZM235.473 26.9035C235.473 28.426 235.814 29.6279 236.495 30.5094C237.176 31.3708 238.278 31.8015 239.8 31.8015C240.662 31.8015 241.473 31.6713 242.234 31.4108C243.015 31.1304 243.687 30.6897 244.247 30.0887C244.808 29.4877 245.249 28.7064 245.57 27.7449C245.91 26.7833 246.08 25.6014 246.08 24.1991V20.4731C245.459 20.4731 244.768 20.4831 244.007 20.5031C243.246 20.5031 242.465 20.5632 241.663 20.6834C240.882 20.8036 240.121 20.9939 239.38 21.2543C238.638 21.5148 237.977 21.8854 237.396 22.3661C236.815 22.8469 236.345 23.4579 235.984 24.1991C235.643 24.9403 235.473 25.8418 235.473 26.9035ZM235.593 16.6268C235.613 17.0675 235.724 17.5283 235.924 18.0091C236.345 18.8705 236.956 19.4815 237.757 19.8421C238.578 20.2026 239.45 20.3829 240.371 20.3829C241.213 20.2828 242.034 20.2227 242.835 20.2026C243.636 20.1626 244.418 20.1425 245.179 20.1425H246.08C246.06 19.0407 245.95 18.0291 245.75 17.1076C245.57 16.1661 245.259 15.3648 244.818 14.7037C244.378 14.0226 243.797 13.4917 243.076 13.1111C242.374 12.7105 241.483 12.5001 240.401 12.4801C239.78 12.4801 239.179 12.5702 238.598 12.7505C238.017 12.9108 237.507 13.1712 237.066 13.5318C236.625 13.8724 236.264 14.3031 235.984 14.8239C235.724 15.3447 235.593 15.9457 235.593 16.6268Z" fill="#022B3A"/>
<path d="M1.26205 27.625H1.50244C1.62264 28.2059 1.79291 28.7969 2.01327 29.3979C2.23363 29.9988 2.51408 30.5497 2.85464 31.0505C3.19519 31.5313 3.59584 31.932 4.05659 32.2525C4.51734 32.553 5.0482 32.7032 5.64918 32.7032C6.53061 32.7032 7.22173 32.5129 7.72254 32.1323C8.24339 31.7316 8.63402 31.2108 8.89445 30.5698C9.15487 29.9087 9.31513 29.1575 9.37523 28.3161C9.45536 27.4547 9.50544 26.5532 9.52547 25.6117V10.1666C9.52547 9.7259 9.50544 9.33527 9.46537 8.99471C9.42531 8.63413 9.33516 8.33364 9.19493 8.09325C9.05471 7.83283 8.85438 7.6325 8.59396 7.49227C8.33354 7.35205 7.98297 7.28193 7.54225 7.28193V6.98145C8.42368 7.02151 9.15487 7.05156 9.73581 7.07159C10.3168 7.07159 10.8576 7.07159 11.3584 7.07159C11.9394 7.07159 12.5203 7.07159 13.1013 7.07159C13.6822 7.05156 14.4334 7.02151 15.3549 6.98145V7.28193C14.9142 7.28193 14.5637 7.35205 14.3032 7.49227C14.0428 7.61247 13.8425 7.79276 13.7023 8.03315C13.562 8.27354 13.4719 8.57403 13.4318 8.93462C13.3918 9.27517 13.3717 9.65579 13.3717 10.0765V22.7871C13.3317 26.1926 12.5804 28.7668 11.1181 30.5097C9.65568 32.2325 7.49217 33.0939 4.62752 33.0939C3.24527 33.0939 1.70277 32.8835 0 32.4628L1.26205 27.625Z" fill="#EC7F00"/>
<path d="M17.5187 32.2525C18.5003 32.2525 19.1313 32.0021 19.4118 31.5013C19.7123 30.9804 19.8725 30.1791 19.8925 29.0974V17.799C19.8925 17.178 19.8825 16.6271 19.8625 16.1463C19.8625 15.6655 19.8024 15.2649 19.6822 14.9444C19.582 14.6038 19.4017 14.3434 19.1413 14.1631C18.8809 13.9828 18.5003 13.8726 17.9995 13.8326V13.5321C18.4202 13.492 18.8809 13.4319 19.3817 13.3518C19.9026 13.2717 20.4134 13.1715 20.9142 13.0513C21.435 12.9311 21.9459 12.8009 22.4467 12.6607C22.9475 12.5004 23.3982 12.3301 23.7989 12.1498V29.2777C23.8189 30.2993 23.9792 31.0505 24.2797 31.5313C24.6002 32.0121 25.2312 32.2525 26.1727 32.2525V32.553C25.5718 32.5129 24.8606 32.4829 24.0393 32.4628C23.2179 32.4428 22.3465 32.4328 21.425 32.4328C20.784 32.4328 20.1329 32.4428 19.4719 32.4628C18.8108 32.4829 18.1597 32.5129 17.5187 32.553V32.2525Z" fill="#EC7F00"/>
<path d="M27.5956 12.1498C28.3769 12.1899 29.078 12.23 29.699 12.27C30.32 12.2901 30.921 12.3001 31.5019 12.3001C32.0428 12.3001 32.6037 12.2901 33.1847 12.27C33.7857 12.23 34.4668 12.1899 35.228 12.1498C36.4901 12.0296 37.4416 12.27 38.0826 12.871C38.7437 13.472 39.0742 14.3935 39.0742 15.6355C39.0742 16.3366 39.1043 16.9877 39.1644 17.5887C39.2245 18.1897 39.3247 18.7105 39.4649 19.1512C39.6051 19.5919 39.7954 19.9425 40.0358 20.2029C40.2962 20.4433 40.6067 20.5635 40.9673 20.5635C41.3079 20.5635 41.7085 20.4433 42.1693 20.2029C42.4698 19.4417 42.7703 18.6905 43.0707 17.9493C43.3712 17.188 43.6617 16.4568 43.9422 15.7557C44.3428 14.734 44.3528 13.9528 43.9722 13.4119C43.6116 12.851 42.7703 12.5004 41.4481 12.3602V12.1498C41.9289 12.1899 42.3796 12.22 42.8003 12.24C43.241 12.26 43.6617 12.27 44.0624 12.27C44.5431 12.27 45.0139 12.26 45.4746 12.24C45.9554 12.22 46.4362 12.1899 46.917 12.1498V12.3602C46.336 12.7007 45.8452 13.1214 45.4446 13.6222C45.064 14.123 44.7134 14.7441 44.3929 15.4853C44.0724 16.3066 43.7218 17.178 43.3412 18.0995C42.9806 19.021 42.61 19.9625 42.2294 20.9241C41.8488 21.8656 41.4681 22.8172 41.0875 23.7787C40.7269 24.7203 40.3764 25.6217 40.0358 26.4831C39.2345 28.5064 38.4332 30.5297 37.6319 32.553H37.3915C37.3514 32.4528 37.2112 32.1223 36.9708 31.5614C36.7304 31.0005 36.4199 30.2793 36.0393 29.3979C35.6587 28.5164 35.218 27.5048 34.7172 26.3629C34.2364 25.2211 33.7256 24.0191 33.1847 22.7571C32.6438 21.495 32.0929 20.2129 31.532 18.9108C30.9711 17.6087 30.4302 16.3467 29.9094 15.1247C29.4686 14.1831 29.068 13.5221 28.7074 13.1414C28.3468 12.7608 27.9662 12.5104 27.5656 12.3902L27.5956 12.1498ZM35.3782 12.4804C35.0177 12.5405 34.7272 12.6707 34.5068 12.871C34.3065 13.0513 34.1663 13.2917 34.0861 13.5922C34.006 13.8726 33.986 14.1932 34.026 14.5537C34.0661 14.8943 34.1563 15.2449 34.2965 15.6055C34.8173 16.8475 35.3782 18.1596 35.9792 19.5418C36.5802 20.9041 37.1311 22.1661 37.6319 23.328C38.2128 24.6902 38.7838 26.0324 39.3447 27.3545C39.6051 26.7335 39.8755 26.0624 40.156 25.3413C40.3964 24.7203 40.6768 24.0091 40.9974 23.2078C41.3179 22.4065 41.6584 21.5551 42.019 20.6537C41.6384 20.8139 41.2878 20.894 40.9673 20.894C40.4064 20.894 39.9757 20.6937 39.6752 20.2931C39.3747 19.8724 39.1544 19.3816 39.0141 18.8207C38.8739 18.2598 38.7938 17.6788 38.7738 17.0778C38.7537 16.4769 38.7437 15.9961 38.7437 15.6355C38.7437 13.3518 37.6219 12.3001 35.3782 12.4804Z" fill="#EC7F00"/>
<path d="M52.6873 32.553C51.7458 32.5329 50.8543 32.4128 50.013 32.1924C49.1916 31.952 48.4704 31.5914 47.8494 31.1106C47.2284 30.6299 46.7376 30.0189 46.377 29.2777C46.0165 28.5365 45.8362 27.655 45.8362 26.6334C45.8362 25.6117 46.0565 24.7503 46.4972 24.0492C46.958 23.348 47.5389 22.7671 48.2401 22.3063C48.9612 21.8456 49.7625 21.485 50.644 21.2246C51.5254 20.9441 52.3968 20.7238 53.2582 20.5635H53.2883C52.3668 20.3832 51.6156 20.0527 51.0346 19.5719C50.4537 19.0911 50.033 18.5402 49.7726 17.9192C49.5322 17.2782 49.452 16.6171 49.5322 15.936C49.6323 15.2549 49.8827 14.6339 50.2834 14.073C50.7041 13.5121 51.285 13.0513 52.0262 12.6907C52.7674 12.3101 53.6589 12.1198 54.7006 12.1198C55.9025 12.1198 57.0444 12.23 58.1261 12.4503C59.2079 12.6707 60.1594 13.0313 60.9808 13.5321C61.8221 14.0329 62.5133 14.684 63.0541 15.4853C63.595 16.2866 63.9356 17.2682 64.0758 18.43C63.4348 18.6504 62.7937 18.8407 62.1527 19.001C61.5317 19.1412 60.9107 19.2714 60.2896 19.3916C60.2295 18.39 60.0893 17.4685 59.869 16.6271C59.6686 15.7857 59.3481 15.0646 58.9074 14.4636C58.4667 13.8426 57.8958 13.3618 57.1946 13.0213C56.5135 12.6607 55.6621 12.4704 54.6405 12.4503C53.4385 12.4704 52.4469 12.7408 51.6656 13.2616C50.9044 13.7625 50.3836 14.3935 50.1031 15.1547C49.9028 15.6756 49.8126 16.2064 49.8327 16.7473C49.8727 17.2682 50.023 17.759 50.2834 18.2197C50.5438 18.6804 50.9044 19.0911 51.3651 19.4517C51.8459 19.7923 52.4269 20.0427 53.108 20.2029C54.2298 20.4834 55.5519 20.5936 57.0744 20.5335C58.0961 20.4934 59.2079 20.3632 60.4098 20.1428C61.6318 19.9225 62.8738 19.6019 64.1359 19.1813C65.2978 18.8006 66.4396 18.3399 67.5615 17.799C68.6833 17.2581 69.725 16.6271 70.6865 15.9059C71.6481 15.1848 72.5095 14.3534 73.2707 13.4119C74.032 12.4503 74.643 11.3686 75.1037 10.1666V19.3916C75.284 18.4501 75.5444 17.5486 75.885 16.6872C76.2255 15.8058 76.6562 15.0345 77.1771 14.3735C77.718 13.7124 78.349 13.1815 79.0702 12.7809C79.8114 12.3602 80.6527 12.1398 81.5943 12.1198C83.1368 12.0597 84.509 12.27 85.7109 12.7508C86.9329 13.2116 87.9746 13.9027 88.836 14.8242C89.6974 15.7256 90.3585 16.8274 90.8192 18.1296C91.28 19.4317 91.5304 20.874 91.5704 22.4566V29.0974C91.5905 30.1591 91.7407 30.9504 92.0212 31.4712C92.3217 31.972 92.9627 32.2224 93.9443 32.2224V32.5229C93.2432 32.4829 92.542 32.4528 91.8409 32.4328C91.1598 32.4128 90.4987 32.4027 89.8577 32.4027C89.2166 32.4027 88.6157 32.4128 88.0547 32.4328C87.5139 32.4328 87.0431 32.4428 86.6424 32.4628C86.1617 32.4829 85.731 32.5029 85.3504 32.5229V32.2224C85.8912 32.2224 86.3119 32.1623 86.6124 32.0422C86.9329 31.922 87.1733 31.7417 87.3336 31.5013C87.4938 31.2409 87.594 30.9103 87.6341 30.5097C87.6942 30.109 87.7242 29.6382 87.7242 29.0974V22.7871C87.7242 21.4449 87.6341 20.1428 87.4538 18.8808C87.2735 17.6187 86.9529 16.5069 86.4922 15.5454C86.0315 14.5638 85.4004 13.7925 84.5991 13.2316C83.8179 12.6707 82.8062 12.4002 81.5642 12.4203C80.4824 12.4603 79.5409 12.7809 78.7396 13.3818C77.9383 13.9828 77.2772 14.7541 76.7564 15.6956C76.2355 16.6371 75.8349 17.6888 75.5544 18.8507C75.274 20.0126 75.1237 21.1745 75.1037 22.3364V29.2777C75.1237 29.7785 75.1538 30.2192 75.1939 30.5998C75.254 30.9604 75.3541 31.2609 75.4943 31.5013C75.6546 31.7417 75.875 31.922 76.1554 32.0422C76.4559 32.1623 76.8465 32.2224 77.3273 32.2224V32.5229C76.7263 32.4829 76.0352 32.4528 75.254 32.4328C74.4927 32.4128 73.6714 32.4027 72.7899 32.4027C72.189 32.4027 71.5579 32.4128 70.8969 32.4328C70.2558 32.4528 69.6148 32.4829 68.9737 32.5229V32.2224C69.4746 32.2224 69.8652 32.1623 70.1457 32.0422C70.4461 31.9019 70.6665 31.7116 70.8067 31.4712C70.967 31.2108 71.0672 30.8903 71.1072 30.5097C71.1673 30.109 71.1974 29.6382 71.1974 29.0974V21.0743C71.1974 20.4533 71.1873 19.9124 71.1673 19.4517C71.1673 18.9709 71.1072 18.5703 70.987 18.2497C70.8869 17.9292 70.7166 17.6788 70.4762 17.4985C70.2358 17.2982 69.8852 17.178 69.4245 17.1379C68.6031 17.6388 67.7518 18.0895 66.8703 18.4901C65.9889 18.8708 65.0774 19.2113 64.1359 19.5118C64.1359 19.6721 64.1359 19.8323 64.1359 19.9926C64.1559 20.1528 64.1659 20.4533 64.1659 20.894C64.1659 21.3348 64.1659 21.9958 64.1659 22.8773C64.1659 23.7587 64.1659 24.9907 64.1659 26.5733C64.1659 27.2944 64.1659 27.9956 64.1659 28.6767C64.186 29.3578 64.2561 29.9588 64.3763 30.4796C64.4965 31.0005 64.6968 31.4211 64.9773 31.7417C65.2577 32.0622 65.6784 32.2224 66.2393 32.2224V32.5229C65.1976 32.5229 64.3062 32.4428 63.565 32.2825C62.8238 32.1223 62.2128 31.8619 61.732 31.5013C61.2512 31.1207 60.8906 30.6198 60.6502 29.9988C60.4299 29.3578 60.3197 28.5565 60.3197 27.5949C59.7588 29.1775 58.8773 30.3995 57.6754 31.2609C56.4734 32.1022 54.951 32.543 53.108 32.583C52.9077 32.583 52.7674 32.573 52.6873 32.553ZM55.0311 20.8339C54.33 20.9942 53.6589 21.2146 53.0178 21.495C52.3768 21.7755 51.8059 22.1561 51.305 22.6369C50.8243 23.1177 50.4336 23.7086 50.1331 24.4098C49.8527 25.0909 49.7125 25.9222 49.7125 26.9038C49.7125 28.4263 50.053 29.6182 50.7341 30.4796C51.4152 31.341 52.517 31.7717 54.0395 31.7717C54.9009 31.7717 55.7122 31.6415 56.4734 31.3811C57.2547 31.1207 57.9258 30.69 58.4867 30.089C59.0476 29.488 59.4883 28.7067 59.8089 27.7452C60.1494 26.7836 60.3197 25.6017 60.3197 24.1994V20.5034C59.5585 20.6236 58.8273 20.7138 58.1261 20.7738C57.5853 20.8339 57.0544 20.874 56.5335 20.894C56.0127 20.894 55.5119 20.874 55.0311 20.8339Z" fill="#EC7F00"/>
<defs>
<linearGradient id="paint0_linear_83_39" x1="27.5294" y1="8.85846" x2="22.6877" y2="2.72201" gradientUnits="userSpaceOnUse">
<stop stop-color="#95C93D"/>
<stop offset="1" stop-color="#39AB49"/>
</linearGradient>
<linearGradient id="paint1_linear_83_39" x1="19.6857" y1="11.7377" x2="15.7597" y2="6.99166" gradientUnits="userSpaceOnUse">
<stop stop-color="#95C93D"/>
<stop offset="1" stop-color="#39AB49"/>
</linearGradient>
</defs>
</svg>
