<svg width="32" height="32" viewBox="0 0 32 32" fill="none" xmlns="http://www.w3.org/2000/svg">
<g clip-path="url(#clip0_1_135)">
<rect width="31.8175" height="31.8175" fill=""/>
<path d="M27.8403 0H3.97718C1.78065 0 0 1.78065 0 3.97718V27.8403C0 30.0368 1.78065 31.8175 3.97718 31.8175H27.8403C30.0368 31.8175 31.8175 30.0368 31.8175 27.8403V3.97718C31.8175 1.78065 30.0368 0 27.8403 0Z" fill="white"/>
<path d="M17.8337 28.3378V16.999H21.6396L22.2095 12.5804H17.8338V9.75944C17.8338 8.48002 18.1893 7.60807 20.0234 7.60807L22.3635 7.60738V3.65496C21.9589 3.60066 20.5702 3.48047 18.9538 3.48047C15.5802 3.48047 13.2708 5.54027 13.2708 9.32184V12.5805H9.45508V16.999H13.2707V28.3379L17.8337 28.3378Z" fill="#161818"/>
</g>
<defs>
<clipPath id="clip0_1_135">
<rect width="31.8175" height="31.8175" fill="white"/>
</clipPath>
</defs>
</svg>
