<svg width="33" height="32" viewBox="0 0 33 32" fill="none" xmlns="http://www.w3.org/2000/svg">
<g clip-path="url(#clip0_1_143)">
<rect width="31.8175" height="31.8175" transform="translate(0.591797)" fill="#161818"/>
<path fill-rule="evenodd" clip-rule="evenodd" d="M28.5219 0C30.6674 0 32.4093 1.74188 32.4093 3.88732V27.9301C32.4093 30.0756 30.6674 31.8175 28.5219 31.8175H4.47912C2.33368 31.8175 0.591797 30.0756 0.591797 27.9301V3.88732C0.591797 1.74188 2.33362 0 4.47912 0L28.5219 0ZM16.5005 5.03362C13.547 5.03362 13.1767 5.04611 12.0168 5.09906C10.8592 5.15188 10.0687 5.3357 9.3769 5.6046C8.66175 5.8825 8.05529 6.25437 7.4507 6.8589C6.8461 7.46349 6.47424 8.07001 6.19633 8.7851C5.9275 9.47688 5.74368 10.2674 5.69079 11.425C5.63791 12.5849 5.62542 12.9552 5.62542 15.9087C5.62542 18.8622 5.63791 19.2326 5.69079 20.3925C5.74368 21.5501 5.9275 22.3406 6.19633 23.0324C6.47424 23.7474 6.8461 24.354 7.4507 24.9586C8.05529 25.5632 8.66175 25.935 9.3769 26.2129C10.0687 26.4818 10.8592 26.6656 12.0168 26.7184C13.1767 26.7713 13.547 26.7838 16.5005 26.7838C19.454 26.7838 19.8244 26.7713 20.9843 26.7184C22.1419 26.6656 22.9324 26.4818 23.6242 26.2129C24.3392 25.935 24.9458 25.5632 25.5504 24.9586C26.155 24.354 26.5268 23.7474 26.8047 23.0324C27.0736 22.3406 27.2574 21.5501 27.3102 20.3925C27.3631 19.2326 27.3756 18.8622 27.3756 15.9087C27.3756 12.9552 27.3631 12.5849 27.3102 11.425C27.2574 10.2674 27.0736 9.47688 26.8047 8.7851C26.5268 8.07001 26.155 7.46349 25.5504 6.8589C24.9458 6.25437 24.3392 5.8825 23.6242 5.6046C22.9324 5.3357 22.1419 5.15188 20.9843 5.09906C19.8244 5.04611 19.454 5.03362 16.5005 5.03362ZM16.5005 6.99313C19.4043 6.99313 19.7483 7.00419 20.895 7.05652C21.9553 7.10493 22.5311 7.2821 22.9144 7.43093C23.422 7.62824 23.7842 7.86395 24.1648 8.24445C24.5454 8.62502 24.781 8.98731 24.9783 9.4949C25.1272 9.87814 25.3044 10.454 25.3527 11.5143C25.4051 12.661 25.4162 13.005 25.4162 15.9087C25.4162 18.8125 25.4051 19.1565 25.3527 20.3032C25.3044 21.3635 25.1272 21.9393 24.9783 22.3226C24.781 22.8302 24.5454 23.1924 24.1648 23.573C23.7842 23.9536 23.422 24.1892 22.9144 24.3865C22.5311 24.5354 21.9553 24.7126 20.895 24.7609C19.7485 24.8133 19.4045 24.8244 16.5005 24.8244C13.5966 24.8244 13.2527 24.8133 12.1061 24.7609C11.0458 24.7126 10.4699 24.5354 10.0867 24.3865C9.57905 24.1892 9.21681 23.9536 8.83625 23.573C8.45568 23.1924 8.21997 22.8302 8.02273 22.3226C7.87383 21.9393 7.69666 21.3635 7.64825 20.3032C7.59593 19.1565 7.58486 18.8125 7.58486 15.9087C7.58486 13.005 7.59593 12.661 7.64825 11.5143C7.69666 10.454 7.87383 9.87814 8.02273 9.4949C8.21997 8.98731 8.45568 8.62502 8.83625 8.24445C9.21681 7.86395 9.57905 7.62824 10.0867 7.43093C10.4699 7.2821 11.0458 7.10493 12.1061 7.05652C13.2528 7.00419 13.5967 6.99313 16.5005 6.99313ZM16.5005 10.3242C13.4163 10.3242 10.916 12.8245 10.916 15.9087C10.916 18.993 13.4163 21.4933 16.5005 21.4933C19.5848 21.4933 22.0851 18.993 22.0851 15.9087C22.0851 12.8245 19.5848 10.3242 16.5005 10.3242ZM16.5005 19.5337C14.4985 19.5337 12.8755 17.9108 12.8755 15.9087C12.8755 13.9067 14.4985 12.2837 16.5005 12.2837C18.5026 12.2837 20.1255 13.9067 20.1255 15.9087C20.1255 17.9108 18.5026 19.5337 16.5005 19.5337ZM23.6107 10.1036C23.6107 10.8243 23.0264 11.4085 22.3057 11.4085C21.585 11.4085 21.0007 10.8243 21.0007 10.1036C21.0007 9.38286 21.585 8.79858 22.3057 8.79858C23.0264 8.79858 23.6107 9.38286 23.6107 10.1036Z" fill="white"/>
</g>
<defs>
<clipPath id="clip0_1_143">
<rect width="31.8175" height="31.8175" fill="white" transform="translate(0.591797)"/>
</clipPath>
</defs>
</svg>
