<svg width="33" height="32" viewBox="0 0 33 32" fill="none" xmlns="http://www.w3.org/2000/svg">
<path d="M32.7862 29.8289C32.7862 30.9266 31.8953 31.8175 30.7976 31.8175H2.95734C1.85964 31.8175 0.96875 30.9266 0.96875 29.8289V1.98859C0.96875 0.890889 1.85964 0 2.95734 0H30.7976C31.8953 0 32.7862 0.890889 32.7862 1.98859V29.8289Z" fill="white"/>
<path d="M11.9069 10.9373H7.92969V24.8574H11.9069V10.9373Z" fill="#161818"/>
<path d="M21.3508 10.9375C18.5757 10.9375 18.0984 11.9497 17.8717 12.9261V10.9375H13.8945V24.8576H17.8717V16.9033C17.8717 15.6137 18.5707 14.9147 19.8603 14.9147C21.1191 14.9147 21.8489 15.5988 21.8489 16.9033V24.8576H25.8261V17.8976C25.8261 13.9204 25.3081 10.9375 21.3508 10.9375Z" fill="#161818"/>
<path d="M9.91828 9.943C11.0165 9.943 11.9069 9.05268 11.9069 7.95441C11.9069 6.85614 11.0165 5.96582 9.91828 5.96582C8.82001 5.96582 7.92969 6.85614 7.92969 7.95441C7.92969 9.05268 8.82001 9.943 9.91828 9.943Z" fill="#161818"/>
</svg>
