<svg width="286" height="52" viewBox="0 0 286 52" fill="none" xmlns="http://www.w3.org/2000/svg">
<path d="M5.92325 41.1005C3.7803 41.1052 1.80059 39.9564 0.74134 38.0935C-0.302644 36.2421 -0.240041 33.9658 0.904123 32.1746L11.5754 15.417C12.6874 13.5834 14.6999 12.49 16.8433 12.5547C18.9851 12.6061 20.9333 13.8069 21.9415 15.6973C22.9363 17.5784 22.812 19.8415 21.6205 21.6073L10.956 38.3648C9.85681 40.0776 7.95834 41.1095 5.92325 41.1005Z" fill="white"/>
<path d="M24.2289 41.0998C22.0765 41.0998 20.096 39.9489 19.056 38.0996C18.0143 36.2532 18.077 33.9826 19.2188 32.1964L29.8698 15.4773C30.9656 13.6174 32.9841 12.4983 35.1421 12.554C37.3125 12.6015 39.2795 13.8156 40.2743 15.7147C41.2623 17.6138 41.1176 19.8905 39.8899 21.6517L29.2412 38.3709C28.1456 40.0762 26.2559 41.105 24.2289 41.0998Z" fill="white"/>
<path d="M42.1189 41.2421C45.1531 41.2421 47.6128 38.834 47.6128 35.8635C47.6128 32.8929 45.1531 30.4849 42.1189 30.4849C39.0847 30.4849 36.625 32.8929 36.625 35.8635C36.625 38.834 39.0847 41.2421 42.1189 41.2421Z" fill="white"/>
<path d="M280.788 30.794C282.447 30.794 283.44 31.9742 283.44 33.9072V40.5316H285.694V33.7558C285.694 30.4684 284.145 28.5625 281.233 28.5625C280.094 28.5625 278.285 28.8745 277.206 30.9704C276.696 29.7109 275.535 28.8337 274.184 28.6869C273.766 28.6104 273.341 28.5854 272.918 28.6123C271.991 28.6869 270.34 29.2634 269.723 30.5702V28.8135H267.467V40.5316H269.723V34.2079C269.723 31.7481 271.333 30.794 272.945 30.794C274.455 30.794 275.447 31.9493 275.447 33.8824V40.5316H277.69V34.2079C277.69 32.25 278.866 30.7714 280.788 30.794ZM259.185 38.5737C260.216 38.5963 261.211 38.1848 261.932 37.4387C262.655 36.6926 263.04 35.6775 263.001 34.6352C263.001 32.2749 261.265 30.794 259.185 30.794C257.103 30.794 255.369 32.2749 255.369 34.6352C255.328 35.6752 255.712 36.6881 256.431 37.4319C257.15 38.178 258.141 38.5918 259.167 38.5737H259.185ZM259.185 40.7712C255.889 40.7712 253.137 38.3363 253.137 34.6217C253.137 30.9071 255.889 28.549 259.185 28.549C262.481 28.549 265.255 30.9071 265.255 34.6217C265.255 38.3363 262.466 40.7825 259.169 40.7825L259.185 40.7712ZM241.528 34.6217L241.505 34.6352C241.505 30.9206 244.329 28.5625 247.648 28.549C249.334 28.5163 250.955 29.1999 252.109 30.43L250.399 31.886C249.666 31.166 248.675 30.7688 247.648 30.7827C245.568 30.7827 243.759 32.2636 243.759 34.6217C243.759 36.2156 244.706 37.6512 246.16 38.2617C247.614 38.8721 249.287 38.533 250.399 37.4071L252.133 38.8631C250.976 40.1059 249.346 40.7994 247.648 40.7712C244.354 40.7712 241.528 38.3363 241.528 34.6217ZM234.309 38.282C234.304 37.8683 234.464 37.4696 234.753 37.1736C235.042 36.8776 235.437 36.7087 235.851 36.7039C236.264 36.7087 236.659 36.8776 236.948 37.1736C237.238 37.4696 237.397 37.8683 237.393 38.282C237.351 39.1056 236.675 39.7544 235.851 39.7629C235.026 39.7544 234.35 39.1056 234.309 38.282Z" fill="white"/>
<path d="M240.485 13.9179H232.456L226.829 28.4259L221.231 13.9179H213.203L222.963 36.8431L216.893 52H224.862L240.485 13.9179ZM191.659 26.6692C191.659 30.3318 194.86 32.7419 198.005 32.7419C201.096 32.7419 204.132 30.4991 204.132 26.667C204.132 22.8348 201.096 20.5897 198.005 20.5897C194.86 20.5897 191.659 23.0021 191.659 26.667V26.6692ZM204.132 39.4703V36.5696C202.504 39.0339 198.706 39.9654 196.757 39.9654C190.305 39.9654 183.85 34.8784 183.85 26.667C183.85 18.4577 190.303 13.3708 196.757 13.3708C198.383 13.3708 202.181 13.9134 204.132 16.7621V13.927H211.616V39.4748L204.132 39.4725V39.4703ZM181.72 39.4703H174.237V36.296C172.987 38.6473 169.955 40.0174 166.808 40.0174C160.299 40.0174 154.549 34.8196 154.549 26.771C154.549 18.5708 160.299 13.3663 166.808 13.3663C169.95 13.3663 172.991 14.6776 174.237 17.0311V0H181.72V39.4703ZM174.074 26.6104C174.074 22.7805 171.309 20.5355 168.218 20.5355C165.017 20.5355 162.358 22.9433 162.358 26.6104C162.358 30.3951 165.017 32.7917 168.216 32.7917C171.366 32.7962 174.074 30.2776 174.074 26.6104ZM136.046 25.9503C136.046 22.0661 138.054 20.7525 140.71 20.7525C143.258 20.7525 145.103 22.4482 145.103 25.8395V39.4657H152.641V24.2003C152.641 16.9249 149.06 13.3663 143.365 13.3663C140.383 13.3663 137.4 15.0619 136.044 17.6348V13.9179H128.511V39.4657H136.046V25.9503ZM113.205 39.9043C106.047 39.9043 100.076 34.6523 100.076 26.6082C100.076 18.5595 106.04 13.3595 113.205 13.3595C120.369 13.3595 126.386 18.5595 126.386 26.6082C126.386 34.6569 120.363 39.9066 113.205 39.9066V39.9043ZM113.205 32.4661C116.347 32.4661 118.954 30.1645 118.954 26.6104C118.954 23.1626 116.35 20.809 113.205 20.809C111.674 20.7851 110.201 21.3908 109.131 22.4843C108.054 23.5835 107.469 25.0723 107.51 26.6104C107.512 30.169 110.114 32.4661 113.205 32.4661ZM86.5626 20.7548C88.785 20.7548 90.7384 22.507 90.7384 25.8417V39.4703H98.2219V24.96C98.2219 17.2459 94.4711 13.3617 88.4594 13.3617C86.6733 13.3617 83.3092 13.9043 80.8674 17.9016C79.4566 14.9466 76.7459 13.4137 72.7396 13.4137C69.8988 13.3993 67.3119 15.0473 66.1243 17.628V13.9202H58.582V39.468H66.1175V25.9503C66.1175 22.0661 68.2337 20.7525 70.5104 20.7525C72.6808 20.7525 74.6297 22.4482 74.6862 25.6767V39.468H82.2239V25.9503C82.2239 22.2357 84.1773 20.757 86.5626 20.757V20.7548Z" fill="white"/>
</svg>
