<svg width="286" height="45" viewBox="0 0 286 45" fill="none" xmlns="http://www.w3.org/2000/svg">
<path d="M40.127 44.5945V33.0176H27.5198C24.0913 33.0176 20.9154 34.8173 19.1595 37.7557L15.0723 44.5945H40.127Z" fill="white"/>
<path d="M0 0.119141V11.6961H33.2064L40.1254 0.119141H0Z" fill="white"/>
<path d="M15.8889 18.2125L0.0332031 44.594H13.5419L32.5024 13.0322H25.0429C21.2908 13.0322 17.8147 14.9993 15.8889 18.2125Z" fill="white"/>
<path d="M68.8693 33.4831C62.0766 33.4831 57.0781 28.5456 57.0781 21.9197C57.0781 15.3576 62.1086 10.3564 68.9014 10.3564C75.6941 10.3564 80.7246 15.4213 80.7246 21.9197C80.7246 28.4819 75.6621 33.4831 68.8693 33.4831ZM68.9014 29.4375C73.1949 29.4375 76.2708 26.252 76.2708 21.9197C76.2708 17.6512 73.1949 14.402 68.9014 14.402C64.5758 14.402 61.4998 17.6512 61.4998 21.9197C61.4998 26.252 64.5758 29.4375 68.9014 29.4375ZM85.2733 40.3956V16.3133H89.3745V18.4475H89.5988C90.0474 17.7467 91.5854 15.8991 94.6613 15.8991C99.3714 15.8991 102.608 19.4032 102.608 24.6274C102.608 29.8516 99.4035 33.4831 94.7895 33.4831C91.8097 33.4831 90.2076 31.8266 89.6629 30.9028H89.4386V40.3956H85.2733ZM93.8603 29.7242C96.5518 29.7242 98.3781 27.6536 98.3781 24.6911C98.3781 21.633 96.5518 19.658 93.8283 19.658C91.0727 19.658 89.3425 21.856 89.3425 24.6911C89.3425 27.8129 91.265 29.7242 93.8603 29.7242ZM114.526 33.4831C109.559 33.4831 106.035 29.7879 106.035 24.7867C106.035 19.4987 109.591 15.8991 114.526 15.8991C119.941 15.8991 122.889 19.881 122.889 24.5955V25.9016H110.072C110.2 28.45 111.962 30.1702 114.654 30.1702C116.705 30.1702 118.275 29.2145 118.851 27.8448H122.728C121.895 31.2532 118.883 33.4831 114.526 33.4831ZM110.136 22.9709H118.915C118.723 20.7092 116.961 19.2121 114.526 19.2121C112.187 19.2121 110.392 20.8685 110.136 22.9709ZM127.373 33.069V16.3133H131.346V18.352H131.571C132.243 17.1096 133.91 15.8991 136.313 15.8991C140.093 15.8991 142.4 18.5431 142.4 22.1109V33.069H138.235V23.1939C138.235 21.1552 136.921 19.7854 134.999 19.7854C132.98 19.7854 131.538 21.3782 131.538 23.4806V33.069H127.373ZM146.533 33.069V29.2782L158.196 14.6568V14.4338H146.949V10.7705H163.514V14.5294L151.851 29.1508V29.4056H163.579V33.069H146.533ZM174.856 33.4831C169.89 33.4831 166.365 29.7879 166.365 24.7867C166.365 19.4987 169.922 15.8991 174.856 15.8991C180.271 15.8991 183.219 19.881 183.219 24.5955V25.9016H170.402C170.53 28.45 172.293 30.1702 174.984 30.1702C177.035 30.1702 178.605 29.2145 179.181 27.8448H183.058C182.225 31.2532 179.214 33.4831 174.856 33.4831ZM170.466 22.9709H179.246C179.053 20.7092 177.291 19.2121 174.856 19.2121C172.517 19.2121 170.723 20.8685 170.466 22.9709ZM187.703 40.3956V16.3133H191.805V18.4475H192.029C192.477 17.7467 194.015 15.8991 197.091 15.8991C201.801 15.8991 205.038 19.4032 205.038 24.6274C205.038 29.8516 201.833 33.4831 197.22 33.4831C194.24 33.4831 192.638 31.8266 192.093 30.9028H191.869V40.3956H187.703ZM196.29 29.7242C198.982 29.7242 200.808 27.6536 200.808 24.6911C200.808 21.633 198.982 19.658 196.258 19.658C193.503 19.658 191.773 21.856 191.773 24.6911C191.773 27.8129 193.695 29.7242 196.29 29.7242ZM209.522 40.3956V16.3133H213.623V18.4475H213.848C214.296 17.7467 215.834 15.8991 218.91 15.8991C223.62 15.8991 226.857 19.4032 226.857 24.6274C226.857 29.8516 223.652 33.4831 219.038 33.4831C216.059 33.4831 214.457 31.8266 213.912 30.9028H213.688V40.3956H209.522ZM218.109 29.7242C220.801 29.7242 222.627 27.6536 222.627 24.6911C222.627 21.633 220.801 19.658 218.077 19.658C215.322 19.658 213.591 21.856 213.591 24.6911C213.591 27.8129 215.514 29.7242 218.109 29.7242ZM238.775 33.4831C233.808 33.4831 230.284 29.7879 230.284 24.7867C230.284 19.4987 233.84 15.8991 238.775 15.8991C244.19 15.8991 247.137 19.881 247.137 24.5955V25.9016H234.321C234.449 28.45 236.211 30.1702 238.903 30.1702C240.953 30.1702 242.524 29.2145 243.1 27.8448H246.977C246.144 31.2532 243.132 33.4831 238.775 33.4831ZM234.385 22.9709H243.164C242.972 20.7092 241.21 19.2121 238.775 19.2121C236.436 19.2121 234.641 20.8685 234.385 22.9709ZM255.723 33.069C252.776 33.069 251.109 31.3169 251.109 28.3544V9.17773H255.275V27.9722C255.275 28.9278 255.755 29.4375 256.62 29.4375H257.293V33.069H255.723ZM263.38 14.0834C261.874 14.0834 260.817 13.1596 260.817 11.6624C260.817 10.2289 261.874 9.2733 263.38 9.2733C264.886 9.2733 265.943 10.2289 265.943 11.6624C265.943 13.1596 264.886 14.0834 263.38 14.0834ZM261.297 33.069V16.3133H265.463V33.069H261.297ZM270.524 33.069V16.3133H274.497V18.352H274.721C275.394 17.1096 277.06 15.8991 279.464 15.8991C283.244 15.8991 285.551 18.5431 285.551 22.1109V33.069H281.386V23.1939C281.386 21.1552 280.072 19.7854 278.15 19.7854C276.131 19.7854 274.689 21.3782 274.689 23.4806V33.069H270.524Z" fill="white"/>
</svg>
