<svg width="32" height="32" viewBox="0 0 32 32" fill="none" xmlns="http://www.w3.org/2000/svg">
<path fill-rule="evenodd" clip-rule="evenodd" d="M3.71691 31.8175H28.4638C30.4163 31.8175 31.9991 30.2347 31.9991 28.2822V3.53527C31.9991 1.5828 30.4163 0 28.4638 0H3.71691C1.76444 0 0.181641 1.5828 0.181641 3.53527V28.2822C0.181641 30.2347 1.76444 31.8175 3.71691 31.8175Z" fill="white"/>
<path fill-rule="evenodd" clip-rule="evenodd" d="M17.5225 20.633C16.2096 20.633 14.9746 19.9211 14.5514 19.1139C14.5514 19.1139 13.845 21.9207 13.6961 22.4628C13.1703 24.3775 11.621 26.2936 11.5004 26.4496C11.417 26.5594 11.2316 26.5249 11.2123 26.3813C11.1786 26.1369 10.7837 23.7208 11.2482 21.7502C11.4811 20.7607 12.8126 15.1111 12.8126 15.1111C12.8126 15.1111 12.4239 14.3329 12.4239 13.1833C12.4239 11.3777 13.4687 10.0298 14.7699 10.0298C15.8753 10.0298 16.4101 10.8619 16.4101 11.8589C16.4101 12.9734 15.7017 14.6381 15.3357 16.1828C15.0318 17.4754 15.9842 18.529 17.2551 18.529C19.559 18.529 21.111 15.5641 21.111 12.0509C21.111 9.38145 19.3171 7.38249 16.0511 7.38249C12.3633 7.38249 10.0635 10.1382 10.0635 13.2178C10.0635 14.2784 10.3763 15.0283 10.8664 15.6069C11.0917 15.8734 11.1227 15.9805 11.0414 16.2857C10.9821 16.5101 10.8491 17.05 10.7933 17.2641C10.712 17.5727 10.4625 17.6832 10.1841 17.5686C8.48661 16.8746 7.69336 15.0096 7.69336 12.914C7.69336 9.45326 10.6079 5.30273 16.3853 5.30273C21.0283 5.30273 24.0842 8.66818 24.0842 12.2822C24.0842 17.0625 21.4322 20.633 17.5225 20.633Z" fill="#161818"/>
</svg>
