<svg width="24" height="26" viewBox="0 0 24 26" fill="none" xmlns="http://www.w3.org/2000/svg">
<path d="M1.30078 0.5C1.00078 0.8 0.800781 1.3 0.800781 1.9V24C0.800781 24.6 1.00078 25.1 1.30078 25.4L1.40078 25.5L13.8008 13.1V13V12.9L1.30078 0.5Z" fill="url(#paint0_linear_1_36)"/>
<path d="M17.9008 17.3L13.8008 13.2V13V12.9L17.9008 8.80005H18.0008L22.9008 11.6C24.3008 12.4 24.3008 13.7 22.9008 14.5L17.9008 17.3Z" fill="url(#paint1_linear_1_36)"/>
<path d="M18.0008 17.2L13.7008 13L1.30078 25.5C1.70078 26 2.50078 26 3.40078 25.5L18.0008 17.2Z" fill="url(#paint2_linear_1_36)"/>
<path d="M18.0008 8.8L3.40078 0.5C2.50078 0 1.70078 0 1.30078 0.5L13.7008 13L18.0008 8.8Z" fill="url(#paint3_linear_1_36)"/>
<defs>
<linearGradient id="paint0_linear_1_36" x1="12.6419" y1="1.7085" x2="-4.14052" y2="18.4909" gradientUnits="userSpaceOnUse">
<stop stop-color="#00A0FF"/>
<stop offset="0.00657445" stop-color="#00A1FF"/>
<stop offset="0.2601" stop-color="#00BEFF"/>
<stop offset="0.5122" stop-color="#00D2FF"/>
<stop offset="0.7604" stop-color="#00DFFF"/>
<stop offset="1" stop-color="#00E3FF"/>
</linearGradient>
<linearGradient id="paint1_linear_1_36" x1="24.6766" y1="13.0002" x2="0.479682" y2="13.0002" gradientUnits="userSpaceOnUse">
<stop stop-color="#FFE000"/>
<stop offset="0.4087" stop-color="#FFBD00"/>
<stop offset="0.7754" stop-color="#FFA500"/>
<stop offset="1" stop-color="#FF9C00"/>
</linearGradient>
<linearGradient id="paint2_linear_1_36" x1="15.6692" y1="15.2949" x2="-7.08912" y2="38.0532" gradientUnits="userSpaceOnUse">
<stop stop-color="#FF3A44"/>
<stop offset="1" stop-color="#C31162"/>
</linearGradient>
<linearGradient id="paint3_linear_1_36" x1="-1.86052" y1="-6.825" x2="8.30198" y2="3.3375" gradientUnits="userSpaceOnUse">
<stop stop-color="#32A071"/>
<stop offset="0.0685" stop-color="#2DA771"/>
<stop offset="0.4762" stop-color="#15CF74"/>
<stop offset="0.8009" stop-color="#06E775"/>
<stop offset="1" stop-color="#00F076"/>
</linearGradient>
</defs>
</svg>
