<svg width="156" height="23" viewBox="0 0 156 23" fill="none" xmlns="http://www.w3.org/2000/svg">
<path d="M11.4546 0L14.0263 7.9149H22.3485L15.6157 12.8066L18.1874 20.7215L11.4546 15.8298L4.72179 20.7215L7.2935 12.8066L0.560686 7.9149H8.8829L11.4546 0Z" fill="white"/>
<path d="M47.4546 0L50.0263 7.9149H58.3485L51.6157 12.8066L54.1874 20.7215L47.4546 15.8298L40.7218 20.7215L43.2935 12.8066L36.5607 7.9149H44.8829L47.4546 0Z" fill="white"/>
<path d="M83.4546 0L86.0263 7.9149H94.3485L87.6157 12.8066L90.1874 20.7215L83.4546 15.8298L76.7218 20.7215L79.2935 12.8066L72.5607 7.9149H80.8829L83.4546 0Z" fill="white"/>
<path d="M119.455 0L122.026 7.9149H130.349L123.616 12.8066L126.187 20.7215L119.455 15.8298L112.722 20.7215L115.293 12.8066L108.561 7.9149H116.883L119.455 0Z" fill="white"/>
<path d="M155.455 1V8V11V13V15V16.8298L148.722 21.7215L151.293 13.8066L144.561 8.9149H152.883L155.455 1Z" fill="white"/>
</svg>
