<svg width="277" height="43" viewBox="0 0 277 43" fill="none" xmlns="http://www.w3.org/2000/svg">
<path d="M262.114 18.5716V24.3276H266.16V30.0386C266.17 30.476 266.151 30.9428 266.091 31.3446L266.057 31.5397C266.05 31.5831 266.042 31.6279 266.033 31.6737L266 31.8141C265.993 31.838 265.987 31.8621 265.98 31.8864L265.933 32.0346C265.569 33.0861 264.474 34.4187 262.013 34.4187C259.391 34.4187 258.339 32.889 258.051 31.8141L258.017 31.6737L257.992 31.5397C257.92 31.0993 257.889 30.5489 257.889 30.0386V12.0006C257.889 11.4335 257.923 10.8187 258.025 10.3178L258.095 10.0135C258.1 9.99239 258.105 9.97097 258.111 9.94923L258.149 9.81518C258.156 9.79227 258.164 9.7691 258.171 9.74567L258.222 9.60238C258.595 8.60577 259.585 7.27842 261.991 7.27842C263.849 7.27842 264.849 8.03535 265.384 8.81766L265.478 8.96446C265.508 9.01338 265.536 9.06221 265.563 9.11079L265.638 9.25557L265.703 9.39773L265.76 9.5362L265.809 9.6699L265.851 9.79777L265.886 9.91874L265.914 10.0317L265.937 10.1357C265.947 10.1874 265.956 10.2422 265.965 10.2993L265.988 10.476C265.992 10.5062 265.995 10.5367 265.999 10.5673L266.023 10.8444L266.039 11.1101L266.053 11.4724L266.057 11.658V13.8484H275.996L275.998 12.4849L276.004 11.9973L276.003 11.6193L275.994 11.1791L275.986 10.9422L275.968 10.5729L275.943 10.1945L275.921 9.94157C275.248 3.27833 270.24 0.714701 264.146 0.268608L263.738 0.241984L263.327 0.221503C263.121 0.212777 262.914 0.206306 262.706 0.202016L262.288 0.196324C262.219 0.195618 262.149 0.195618 262.079 0.195618L261.66 0.198477C261.59 0.199433 261.521 0.200631 261.451 0.202073L261.036 0.213681L260.624 0.231281L260.215 0.255001L259.809 0.284969C259.675 0.296013 259.541 0.30812 259.407 0.32131L259.009 0.364154C258.943 0.371843 258.877 0.379809 258.811 0.388053L258.419 0.440888C257.508 0.572078 256.632 0.758966 255.802 1.00883L255.449 1.1198C251.598 2.38328 248.799 5.06958 248.224 9.94157L248.165 10.4824L248.125 10.9011L248.087 11.3401L248.055 11.7769C248.037 12.0623 248.026 12.3312 248.026 12.5535L248.027 29.3595L248.029 29.568L248.038 29.8851L248.048 30.1073L248.061 30.3447L248.079 30.6029L248.102 30.8872L248.146 31.3752L248.183 31.7495C248.741 37.9414 253.434 40.6958 259.176 41.3457L259.579 41.3876C260.252 41.4519 260.938 41.4881 261.633 41.4984L262.051 41.5015L262.471 41.4984C263.17 41.4881 263.86 41.4519 264.535 41.3876L264.939 41.3457C270.7 40.6958 275.363 37.9414 275.93 31.7495L275.976 31.2034L276.01 30.7414L276.041 30.2238L276.059 29.7779L276.075 29.1466V18.5716H262.114ZM193.58 1.25733H183.598V30.4546C183.614 30.9634 183.598 31.5351 183.51 31.9542L183.481 32.0812L183.444 32.2165C183.431 32.2628 183.416 32.3103 183.4 32.3588L183.348 32.5068C182.972 33.5107 182.012 34.8206 179.718 34.8206C177.565 34.8206 176.583 33.6384 176.171 32.6595L176.111 32.5068C176.102 32.4818 176.093 32.4568 176.084 32.4322L176.037 32.2868L175.998 32.1479C175.992 32.1254 175.987 32.1031 175.982 32.0812L175.954 31.9542C175.854 31.5351 175.842 30.9634 175.854 30.4546V1.25733H165.876V29.5485L165.874 29.776L165.877 30.1737L165.891 30.7588L165.919 31.47L165.938 31.8281L165.951 32.0181L165.963 32.1579C166.452 37.3922 169.523 40.1167 173.86 41.2567L174.229 41.3493C175.036 41.5418 175.884 41.6821 176.765 41.7758L177.174 41.8158L177.588 41.8493L178.006 41.8764C178.216 41.8884 178.427 41.898 178.641 41.9054L179.069 41.9171L179.5 41.9229C179.573 41.9236 179.645 41.9236 179.718 41.9236L180.152 41.9208C180.224 41.9198 180.296 41.9186 180.368 41.9171L180.796 41.9054C181.01 41.898 181.222 41.8884 181.432 41.8764L181.851 41.8493L182.265 41.8158L182.675 41.7758C188.513 41.1559 192.892 38.498 193.495 32.1579L193.503 32.0949L193.519 31.9288L193.543 31.5975L193.565 31.1967L193.577 30.9069L193.589 30.4624L193.592 30.1737L193.591 29.9022L193.585 29.6577C193.583 29.6197 193.582 29.5832 193.58 29.5485V1.25733ZM101.867 1.25733L96.8878 32.1083L91.9117 1.25733H75.8107L74.9568 40.7246H84.8208L85.0879 4.18856L91.8747 40.7246H101.883L108.676 4.18856L108.944 40.7246H118.833L117.95 1.25733H101.867ZM42.2536 1.25733L34.9427 40.7246H45.6039L51.1131 4.18856L56.4901 40.7246H67.0773L59.7969 1.25733H42.2536ZM228.463 33.0331L219.169 1.25733H204.523V40.3131H214.212L213.649 7.52066L223.631 40.3131H237.677V1.25733H227.925L228.463 33.0331ZM138.845 11.5288C138.67 10.7494 138.72 9.9213 138.811 9.4885C138.837 9.37365 138.867 9.25784 138.903 9.14222L138.961 8.96905C139.354 7.87491 140.276 6.84715 142.388 6.84715C144.667 6.84715 146.004 8.26817 146.004 10.4007V12.814H155.734V10.0632C155.734 3.8554 151.671 1.46741 147.33 0.630441L146.973 0.565095L146.614 0.506454L146.256 0.454239L145.898 0.408169L145.54 0.367965L145.183 0.333347C145.065 0.322707 144.946 0.312951 144.828 0.304034L144.475 0.279746L144.124 0.260205L143.777 0.245129L143.433 0.23424L143.092 0.227256L142.59 0.223491L142.369 0.224272L141.928 0.230553C141.855 0.232129 141.782 0.233971 141.71 0.23608L141.275 0.251974C141.131 0.258356 140.988 0.265828 140.845 0.274407L140.419 0.303484C134.483 0.757562 129.85 3.19587 128.924 8.91381C128.649 10.6551 128.582 12.2008 129.018 14.1732C129.705 17.4144 132.405 19.7208 135.504 21.6553L135.984 21.9501C136.064 21.9988 136.145 22.0472 136.226 22.0954L136.713 22.3822L137.202 22.6643L137.694 22.9421L138.432 23.3518L140.37 24.414L140.841 24.6752L141.304 24.9354L141.757 25.1953L142.2 25.4552C144.312 26.7124 146.005 27.9873 146.614 29.5115C146.951 30.417 146.877 31.5585 146.714 32.2868L146.686 32.4042C146.646 32.5793 146.596 32.7545 146.532 32.9267L146.464 33.0978C146.015 34.1451 145.035 35.038 142.882 35.038C140.427 35.038 138.948 33.6261 138.948 31.4981L138.945 27.7104H128.472V30.7212C128.472 37.7879 132.956 40.8575 138.571 41.7689L138.989 41.8325C139.269 41.8723 139.551 41.9069 139.836 41.9367L140.264 41.9776C140.766 42.021 141.274 42.0497 141.785 42.0649L142.225 42.0745C142.298 42.0756 142.371 42.0764 142.445 42.0769L142.666 42.0777C142.812 42.0777 142.959 42.0767 143.104 42.0746L143.54 42.065C143.612 42.0629 143.684 42.0605 143.756 42.0579L144.187 42.0386C144.329 42.0311 144.471 42.0225 144.613 42.0128L145.035 41.9803C145.315 41.9563 145.592 41.9279 145.866 41.8948L146.275 41.8416L146.678 41.7814C146.812 41.7601 146.945 41.7377 147.077 41.714L147.47 41.6394C152.224 40.687 155.76 38.1046 156.47 33.1396C156.568 32.399 156.628 31.7151 156.661 31.09L156.678 30.6819C156.681 30.6154 156.683 30.5496 156.684 30.4845L156.691 30.1028V29.7388L156.685 29.3927L156.673 29.0647L156.657 28.7547C156.654 28.7046 156.651 28.6552 156.648 28.6066L156.626 28.3241L156.602 28.0601L156.575 27.8148L156.532 27.4819L156.487 27.1917L156.428 26.8718L156.401 26.7409C155.716 23.3041 152.707 20.8765 149.364 18.8782L148.884 18.5956L148.401 18.3185L147.917 18.0464L147.189 17.6471L146.223 17.1289L144.576 16.253L143.899 15.8864C143.825 15.8459 143.751 15.8054 143.678 15.765L143.244 15.5232L142.823 15.2824C140.749 14.0798 139.181 12.8991 138.845 11.5288ZM10.4904 11.432C10.3113 10.6861 10.3393 9.90142 10.4312 9.44547L10.4692 9.27475L10.5124 9.10583C10.8411 7.9207 11.7398 6.69917 14.0627 6.69917C16.3711 6.69917 17.7303 8.13387 17.7303 10.2836V12.7263H27.5746V9.95373C27.5746 4.02979 23.8893 1.54192 19.7712 0.568726L19.4121 0.487872C19.1121 0.423597 18.8103 0.366982 18.508 0.317298L18.145 0.260957L17.7819 0.210988L17.4193 0.16711L17.0576 0.129043C16.9373 0.117291 16.8172 0.106461 16.6973 0.096506L16.3389 0.0692179L15.9828 0.0468982L15.6294 0.0292662L15.2794 0.0160411L14.9331 0.00694223L14.4218 0H14.2538C14.1062 0 13.9592 0.00103142 13.8128 0.00311098L13.3753 0.0125107C13.085 0.0208958 12.7971 0.0335402 12.5121 0.0505775L12.0866 0.0794451C12.016 0.084811 11.9457 0.0904557 11.8755 0.0963812L11.4566 0.135321C11.3177 0.149435 11.1797 0.16469 11.0424 0.181101L10.633 0.233821C10.2939 0.280674 9.96005 0.334861 9.63193 0.396643L9.24097 0.474444L8.85571 0.559636L8.47632 0.652319C8.35086 0.684474 8.22641 0.717893 8.10301 0.752595L7.73596 0.860563C3.9155 2.03496 1.16226 4.49802 0.467254 8.77191C0.180415 10.5411 0.131257 12.0974 0.545806 14.0916C1.27564 17.5378 4.25225 19.9377 7.58238 21.9542L8.07202 22.2467C8.15397 22.295 8.23608 22.3431 8.31832 22.391L8.81306 22.6761L9.55803 23.0958L10.5498 23.6429L12.0126 24.4445L12.7232 24.8401L13.4141 25.2343L13.8614 25.497C13.935 25.5408 14.0081 25.5847 14.0806 25.6286L14.5094 25.8923C16.3376 27.0374 17.7695 28.2169 18.3222 29.5997C18.6842 30.4989 18.5996 31.6402 18.4285 32.3921L18.3993 32.5137C18.357 32.6867 18.3052 32.86 18.241 33.0305L18.1727 33.2C17.7128 34.2658 16.7258 35.1799 14.5447 35.1799C12.0792 35.1799 10.6044 33.7437 10.6044 31.5863L10.5908 27.7884H0V30.8063C0 39.2775 6.38693 42.0618 13.4602 42.271L13.9031 42.2808L14.3475 42.284L14.787 42.2809C15.0058 42.2777 15.2234 42.2723 15.4396 42.2644L15.8701 42.2453C16.0843 42.2342 16.2971 42.2206 16.5084 42.2046L16.9287 42.1691L17.3446 42.1269C17.4825 42.1117 17.6196 42.0953 17.7559 42.0778L18.1625 42.0218C18.2972 42.0019 18.431 41.9809 18.564 41.9588L18.9605 41.8886C23.8827 40.9669 27.551 38.3559 28.2897 33.249C28.3914 32.5195 28.455 31.8445 28.4905 31.226L28.5102 30.822L28.5222 30.4349C28.525 30.3087 28.5266 30.1853 28.5272 30.0647L28.5259 29.7116L28.5189 29.3757L28.507 29.0572L28.4907 28.7561L28.4708 28.4725L28.4479 28.2066L28.4094 27.8413L28.368 27.5164L28.3119 27.1468L28.2481 26.7886C27.5651 23.3924 24.646 20.9762 21.3617 18.989L20.8787 18.7012C20.7978 18.6537 20.7168 18.6064 20.6356 18.5594L20.1473 18.2801L19.6569 18.0059L19.1659 17.7365L18.6756 17.4714L16.512 16.323L15.8201 15.9522L15.3708 15.7072L14.9326 15.4635L14.5067 15.2208C14.4368 15.1804 14.3675 15.1401 14.2988 15.0997L13.894 14.8577C12.1064 13.7688 10.7938 12.6794 10.4904 11.432Z" fill="white"/>
</svg>
