<svg width="107" height="107" viewBox="0 0 107 107" fill="none" xmlns="http://www.w3.org/2000/svg">
<circle cx="53.5" cy="53.5002" r="53" stroke="white"/>
<path d="M54.9198 42.0093L65.0778 52.1673L36.5039 52.1674C36.2985 52.1674 36.101 52.2011 35.9165 52.2635C35.4193 52.4316 35.0177 52.807 34.8146 53.2871C34.7219 53.5063 34.6706 53.7475 34.6705 54.0007C34.6706 55.0132 35.4914 55.834 36.5039 55.834L65.0778 55.834L54.9199 65.9919C54.2039 66.7079 54.2039 67.8687 54.9199 68.5847C55.6358 69.3006 56.7966 69.3006 57.5126 68.5847L70.8002 55.297C70.845 55.2523 70.887 55.2058 70.9262 55.1578C71.5002 54.4539 71.4731 53.4232 70.8446 52.7502C70.8302 52.7347 70.8154 52.7194 70.8002 52.7043L57.5125 39.4166C56.7966 38.7006 55.6358 38.7006 54.9198 39.4166C54.2039 40.1325 54.2039 41.2934 54.9198 42.0093Z" fill="white"/>
</svg>
