<svg width="122" height="122" viewBox="0 0 122 122" fill="none" xmlns="http://www.w3.org/2000/svg">
<path d="M87.1607 55.5848V27.2712C87.1607 26.3481 86.9789 25.4339 86.6256 24.581C86.2723 23.7281 85.7545 22.9532 85.1018 22.3004C84.449 21.6476 83.674 21.1298 82.8211 20.7765C81.9682 20.4233 81.0541 20.2414 80.1309 20.2415H20.3735C18.5091 20.2415 16.7211 20.9821 15.4027 22.3004C14.0844 23.6188 13.3438 25.4068 13.3438 27.2712V65.6866C13.3437 66.6097 13.5255 67.5239 13.8787 68.3768C14.232 69.2297 14.7497 70.0046 15.4025 70.6574C16.0553 71.3102 16.8302 71.828 17.6831 72.1813C18.536 72.5346 19.4501 72.7164 20.3733 72.7163H29.4305V83.3836C29.4305 83.8704 29.5749 84.3462 29.8454 84.751C30.1158 85.1557 30.5002 85.4711 30.9499 85.6574C31.3997 85.8436 31.8945 85.8924 32.372 85.7974C32.8494 85.7024 33.2879 85.468 33.6321 85.1237L46.0394 72.7164H57.4201V65.6373C57.4231 62.972 58.4832 60.4166 60.368 58.532C62.2528 56.6474 64.8083 55.5874 67.4736 55.5848H87.1607ZM66.2292 50.3789C66.2291 50.8401 66.0458 51.2824 65.7197 51.6086C65.3935 51.9347 64.9512 52.118 64.49 52.1181H55.8909V60.7166C55.8909 61.1779 55.7077 61.6202 55.3816 61.9464C55.0555 62.2725 54.6132 62.4558 54.152 62.4558H46.3522C46.1238 62.4558 45.8977 62.4108 45.6867 62.3234C45.4756 62.236 45.2839 62.1079 45.1224 61.9464C44.9609 61.7849 44.8328 61.5932 44.7454 61.3822C44.658 61.1712 44.613 60.945 44.613 60.7166V52.1181H36.014C35.5528 52.1179 35.1105 51.9346 34.7844 51.6085C34.4583 51.2823 34.2751 50.8401 34.275 50.3789V42.5789C34.2751 42.1177 34.4583 41.6754 34.7844 41.3493C35.1105 41.0231 35.5528 40.8398 36.014 40.8397H44.613V32.2411C44.613 32.0127 44.658 31.7866 44.7454 31.5755C44.8328 31.3645 44.9609 31.1728 45.1224 31.0113C45.2839 30.8498 45.4756 30.7217 45.6866 30.6343C45.8977 30.5469 46.1238 30.5019 46.3522 30.5019H54.152C54.3803 30.502 54.6065 30.547 54.8175 30.6344C55.0285 30.7218 55.2202 30.8499 55.3816 31.0114C55.5431 31.1729 55.6712 31.3646 55.7586 31.5756C55.846 31.7866 55.8909 32.0127 55.8909 32.2411V40.8397H64.49C64.9512 40.8398 65.3935 41.023 65.7197 41.3492C66.0458 41.6753 66.2291 42.1177 66.2292 42.5789V50.3789Z" stroke="white" stroke-width="4"/>
<path d="M104.321 61.303H67.4734C66.3238 61.303 65.2212 61.7597 64.4083 62.5726C63.5954 63.3855 63.1387 64.488 63.1387 65.6376V89.3252C63.1388 90.4749 63.5955 91.5774 64.4085 92.3903C65.2214 93.2032 66.324 93.6599 67.4736 93.6599H88.495L96.1458 101.311C96.3581 101.523 96.6285 101.668 96.9228 101.726C97.2172 101.785 97.5223 101.755 97.7996 101.64C98.0769 101.525 98.3139 101.33 98.4807 101.081C98.6474 100.831 98.7364 100.538 98.7364 100.238V93.6599H104.322C105.471 93.6599 106.574 93.2033 107.387 92.3905C108.199 91.5777 108.656 90.4752 108.656 89.3257V65.6376C108.656 65.0684 108.544 64.5047 108.326 63.9788C108.108 63.4528 107.789 62.975 107.386 62.5725C106.984 62.17 106.506 61.8507 105.98 61.6329C105.454 61.415 104.89 61.3029 104.321 61.303ZM98.0341 86.02H73.6815C72.9232 86.02 72.1959 85.7188 71.6596 85.1825C71.1234 84.6463 70.8221 83.919 70.8221 83.1606C70.8221 82.4023 71.1234 81.675 71.6596 81.1388C72.1959 80.6025 72.9232 80.3013 73.6815 80.3013H98.0341C98.7925 80.3013 99.5198 80.6025 100.056 81.1388C100.592 81.675 100.894 82.4023 100.894 83.1606C100.894 83.919 100.592 84.6463 100.056 85.1825C99.5198 85.7188 98.7925 86.02 98.0341 86.02ZM98.0341 74.5825H73.6815C72.9232 74.5825 72.1959 74.2813 71.6596 73.745C71.1234 73.2088 70.8221 72.4815 70.8221 71.7231C70.8221 70.9648 71.1234 70.2375 71.6596 69.7013C72.1959 69.165 72.9232 68.8638 73.6815 68.8638H98.0341C98.7925 68.8638 99.5198 69.165 100.056 69.7013C100.592 70.2375 100.894 70.9648 100.894 71.7231C100.894 72.4815 100.592 73.2088 100.056 73.745C99.5198 74.2813 98.7925 74.5825 98.0341 74.5825Z" stroke="white" stroke-width="4"/>
</svg>
