<svg width="307" height="63" viewBox="0 0 307 63" fill="none" xmlns="http://www.w3.org/2000/svg">
<path d="M55.3636 33.6427L55.4043 33.6459L59.6453 34.0893C59.9431 34.1213 60.2165 34.2666 60.4097 34.4938L60.4412 34.5324L60.4009 34.5525C60.5991 34.8027 60.6865 35.1228 60.6426 35.439C59.716 42.8056 56.2245 49.6105 50.7807 54.6593C45.1323 59.8981 37.713 62.8088 30.0089 62.8088C26.2672 62.8148 22.5573 62.126 19.068 60.7776L18.8778 60.7034C18.5922 60.5979 18.3628 60.3807 18.2413 60.1031L18.223 60.0588C18.1041 59.7823 18.0974 59.4712 18.2032 59.1911L19.8772 55.1069C20.104 54.5296 20.7469 54.2387 21.3274 54.4434L21.366 54.4578C29.9226 57.7617 39.6137 55.9009 46.3383 49.6628C50.6185 45.7299 53.3785 40.4166 54.1351 34.6532C54.2152 34.0581 54.7315 33.6252 55.3232 33.641L55.3636 33.6427ZM155.525 16.3095C159.141 16.3095 161.969 17.4128 163.775 19.5317L163.836 19.6035V17.8104C163.86 17.3099 164.248 16.9054 164.742 16.8566L164.783 16.8534H169.608C170.104 16.8877 170.499 17.2785 170.542 17.7703L170.545 17.8104V44.5959C170.701 48.3729 169.54 52.0868 167.261 55.1026C164.662 58.2657 160.713 59.8673 155.525 59.8673C148.313 59.8673 142.621 55.3041 141.684 48.7863C141.638 48.3159 141.924 47.8784 142.37 47.7308L142.409 47.7186L147.124 46.6105C147.148 46.605 147.173 46.6003 147.198 46.5967C147.715 46.5209 148.196 46.8789 148.272 47.3963C148.703 51.0523 151.845 53.7798 155.525 53.6922C161.1 53.6922 163.723 50.8587 163.775 44.9373L163.775 44.757V42.4099C161.686 44.7537 158.664 46.0488 155.525 45.9457C147.507 45.9457 141.694 39.7203 141.694 31.1577C141.621 27.3053 142.977 23.562 145.502 20.6511C148.066 17.8339 151.716 16.253 155.525 16.3095ZM10.3064 48.887L10.3662 48.8866L10.4262 48.8871C12.351 48.9091 13.9007 50.4655 13.9216 52.3832L13.9218 52.4432C13.9218 52.4631 13.9215 52.4831 13.9212 52.503C13.8877 54.4666 12.2689 56.0315 10.3053 55.9981C8.34163 55.9646 6.77694 54.3458 6.81012 52.3822C6.84295 50.4587 8.39699 48.9178 10.3064 48.887ZM239.05 15.9368L239.297 15.9386C247.917 16.0576 253.258 22.0577 253.258 31.6614C253.258 32.1695 253.231 32.6773 253.177 33.1825C253.134 33.6472 252.753 34.0055 252.291 34.0276L252.251 34.0286H231.761C231.887 38.332 235.445 41.737 239.751 41.6744C243.087 41.8842 246.128 39.7623 247.083 36.5572C247.258 36.0971 247.754 35.8496 248.224 35.9816L248.262 35.9931L252.351 37.4336C252.577 37.5063 252.762 37.6665 252.867 37.8771L252.885 37.9172C252.998 38.139 253.017 38.3968 252.937 38.6323C251.036 44.2568 245.684 47.9783 239.751 47.7993C235.86 47.838 232.115 46.318 229.354 43.5784C226.339 40.4069 224.731 36.1547 224.892 31.7823C224.892 21.9592 231.951 16.0556 238.845 15.9386L239.05 15.9368ZM123.109 15.9368H123.119C131.893 15.9368 137.343 21.9607 137.343 31.6614C137.342 32.1695 137.315 32.6773 137.262 33.1825C137.221 33.6497 136.839 34.0106 136.374 34.028L136.335 34.0286H115.846C115.972 38.3439 119.548 41.7537 123.864 41.6746C127.203 41.888 130.246 39.7647 131.198 36.5572C131.368 36.0934 131.868 35.8442 132.338 35.9812L132.376 35.9931L136.466 37.4336C136.705 37.5108 136.9 37.6869 137 37.9172C137.096 38.1459 137.096 38.4035 137 38.6323C135.102 44.2531 129.754 47.9738 123.824 47.7993C119.927 47.8433 116.175 46.323 113.408 43.5784C110.398 40.4045 108.789 36.154 108.945 31.7823C108.945 21.86 116.148 15.9368 123.109 15.9368ZM92.0821 15.9266C96.0208 15.9266 99.2041 16.8836 101.561 18.7672C103.155 20.0375 104.336 21.7517 104.956 23.6933L104.958 23.7011C105.039 24.0359 104.842 24.373 104.516 24.4701L104.483 24.479L99.597 26.0908C99.3801 26.1767 99.1387 26.1767 98.9221 26.0908C98.737 26.0044 98.5978 25.8431 98.5392 25.6476L98.5132 25.5515C98.0682 23.9607 96.6134 21.4066 92.0821 21.4066C88.8586 21.4066 86.9245 23.2602 86.9245 25.0533L86.9252 25.1243C86.9495 26.2902 87.5834 27.7538 90.3636 28.3102L90.4502 28.3271L95.8295 29.3344C101.773 30.5312 105.199 33.7617 105.267 38.2638L105.268 38.4006L105.248 38.3203L105.247 38.4568C105.16 42.9698 100.795 47.7186 92.757 47.7186C83.3383 47.7186 79.6414 42.3897 78.9563 39.2469C78.9116 38.9181 79.1122 38.6075 79.4259 38.5109L79.4599 38.5013L84.4968 36.9299C84.5868 36.9152 84.6787 36.9152 84.7687 36.9299C84.8968 36.9276 85.0234 36.9548 85.1389 37.009L85.1817 37.0307C85.3667 37.1193 85.5032 37.2853 85.5544 37.4838C86.1892 40.5061 88.9191 42.3092 92.8477 42.3092C96.5044 42.3092 98.1665 40.3952 98.1665 38.6625C98.1665 36.949 96.718 35.6787 94.2208 35.154L94.1372 35.1368L88.4859 34.0388C83.2174 33.0415 79.9335 29.7675 79.9335 25.5065C79.9335 20.3186 85.5041 15.9266 92.0821 15.9266ZM295.245 7.53542H299.648C300.167 7.5666 300.574 7.98787 300.594 8.50385L300.595 8.54272V16.8131H305.892C306.407 16.8493 306.81 17.2687 306.829 17.7808L306.83 17.8204V22.2125L306.83 22.2507C306.815 22.7431 306.424 23.1431 305.931 23.1683L305.892 23.1695H300.595V37.8667C300.595 40.3045 301.56 41.3119 304.048 41.3119C304.552 41.3032 305.056 41.2649 305.555 41.1975L305.742 41.1708C306.016 41.1243 306.296 41.2019 306.507 41.3824C306.697 41.5589 306.811 41.8014 306.828 42.0592L306.83 42.1078V46.2479C306.834 46.6698 306.559 47.0435 306.155 47.1646C304.994 47.4894 303.796 47.6524 302.592 47.6495L302.428 47.6481C297.171 47.6481 293.891 44.3011 293.826 38.8877L293.825 38.723V23.2299H289.241C288.742 23.2005 288.34 22.8084 288.297 22.3133L288.294 22.2729V17.8607C288.293 17.3401 288.689 16.9069 289.203 16.8564L289.241 16.8534L290.474 16.8532L290.605 16.8509C292.044 16.8096 294.252 16.2266 294.298 13.0157L294.299 12.9145V8.54272C294.297 8.02219 294.693 7.58899 295.207 7.53848L295.245 7.53542ZM209.686 15.9323L209.801 15.9368H209.791C214.977 15.9368 220.212 19.5502 220.317 27.4418L220.318 27.6823V46.3386C220.295 46.8391 219.906 47.2434 219.412 47.2924L219.371 47.2956H214.546C214.046 47.266 213.646 46.8741 213.602 46.3789L213.599 46.3386V28.2868L213.598 28.1478C213.569 25.8477 212.787 22.152 208.049 22.152C204.548 22.152 202.054 24.877 202.004 28.8412L202.004 28.9617V46.3386C201.98 46.8391 201.593 47.2434 201.097 47.2924L201.057 47.2956H196.172C195.671 47.266 195.271 46.8741 195.228 46.3789L195.225 46.3386V28.2868L195.225 28.1478C195.195 25.8477 194.413 22.152 189.674 22.152C186.034 22.152 183.569 24.8572 183.52 28.8993L183.52 29.0222V46.3386C183.495 46.8391 183.107 47.2434 182.613 47.2924L182.573 47.2956H177.747C177.251 47.2613 176.856 46.8704 176.813 46.3787L176.811 46.3386V17.7499C176.834 17.253 177.217 16.8499 177.707 16.7965L177.747 16.7929H182.391C182.891 16.8223 183.292 17.2144 183.336 17.7096L183.338 17.7499V19.4725C185.427 17.1822 188.397 15.8953 191.497 15.9368C195.087 15.8316 198.437 17.7297 200.191 20.8625C202.28 17.6714 205.88 15.8045 209.686 15.9323ZM281.938 19.4926C283.787 21.928 284.74 24.9234 284.642 27.9764L284.637 28.1054V46.3386C284.613 46.8355 284.231 47.2386 283.74 47.292L283.7 47.2956H278.816C278.315 47.266 277.915 46.8741 277.87 46.3789L277.867 46.3386V29.0827C277.867 24.5697 275.742 22.2729 271.713 22.2729C269.933 22.2154 268.231 23.0083 267.129 24.4085C266.063 25.9454 265.513 27.7797 265.555 29.6476L265.559 29.7575V46.3386C265.533 46.8391 265.146 47.2434 264.652 47.2924L264.612 47.2956H259.736C259.236 47.266 258.835 46.8741 258.792 46.3789L258.789 46.3386V17.7297C258.813 17.2292 259.201 16.8249 259.696 16.7759L259.736 16.7727H264.501C264.997 16.807 265.392 17.1979 265.435 17.6896L265.438 17.7297V19.7445C267.482 17.2682 270.548 15.8651 273.759 15.9368C276.886 15.8031 279.903 17.1143 281.938 19.4926ZM1.16855 34.8649H35.8518C36.4891 34.8703 37.004 35.3806 37.02 36.0131L37.0204 36.0536V40.3953C37.0257 41.0326 36.5241 41.5561 35.8921 41.5829L35.8516 41.5839H1.16855C0.531079 41.5785 0.0163618 41.068 0 40.4357V40.3952V36.0534V36.0129C0.0160204 35.3944 0.509098 34.8925 1.12716 34.8659L1.16855 34.8649ZM156.361 22.3334C151.607 22.3334 148.585 25.7181 148.585 31.1577C148.585 36.5975 151.566 39.972 156.361 39.972C160.935 39.972 164.017 36.4263 164.017 31.1577C164.017 25.8792 160.935 22.3334 156.361 22.3334ZM116.06 28.219L116.047 28.3271H130.382C130.033 24.4976 127.334 22.1095 123.292 22.0622L123.169 22.0614C119.607 22.0035 116.574 24.6084 116.074 28.1126L116.06 28.219ZM232.016 28.219L232.003 28.3271H246.339C245.99 24.4976 243.29 22.1095 239.248 22.0622L239.125 22.0614C235.564 22.0035 232.53 24.6084 232.03 28.1126L232.016 28.219ZM40.1934 1.73299C40.4937 1.84132 40.7371 2.06662 40.8683 2.35758C40.9887 2.65131 40.9887 2.98062 40.8683 3.27418L39.3573 7.30372C39.1479 7.90119 38.4946 8.21651 37.8966 8.00883C29.9806 5.24644 21.1969 6.81597 14.7275 12.149C10.6957 15.5237 7.83297 20.0859 6.54784 25.1841C6.4148 25.699 5.95123 26.059 5.41959 26.0606H5.15766L1.00734 25.0633C0.697897 24.9906 0.432163 24.7938 0.271997 24.5192H0.251782C0.0838411 24.2449 0.0364997 23.9133 0.120989 23.6026C1.76912 17.0764 5.45691 11.2465 10.6477 6.9611C18.9017 0.165886 30.1088 -1.81727 40.1934 1.73299ZM24.8313 19.1401H59.5144C60.136 19.1452 60.6441 19.6314 60.6811 20.2472L60.683 20.2884V24.6301C60.6883 25.2676 60.187 25.7911 59.5549 25.8178L59.5144 25.8189H24.8313C24.198 25.808 23.6892 25.2995 23.6731 24.6713L23.6727 24.6301V20.3286C23.6672 19.6954 24.1625 19.1738 24.7902 19.1415L24.8313 19.1401ZM48.9081 5.89327L48.9679 5.89281L49.0279 5.89333C50.9527 5.91539 52.5024 7.47173 52.5233 9.38925L52.5235 9.44929C52.5235 9.46933 52.5232 9.48937 52.5229 9.50924C52.4895 11.4729 50.8706 13.0376 48.907 13.0042C46.9433 12.9709 45.3786 11.3519 45.412 9.38847C45.4447 7.46474 46.9989 5.92401 48.9081 5.89327Z" fill="white"/>
</svg>
