<svg width="33" height="32" viewBox="0 0 33 32" fill="none" xmlns="http://www.w3.org/2000/svg">
<g clip-path="url(#clip0_1_139)">
<rect width="31.8175" height="31.8175" transform="translate(0.214844)" fill="#161818"/>
<path d="M28.0551 31.8175H4.19203C1.99662 31.8175 0.214844 30.0357 0.214844 27.8403V3.97718C0.214844 1.78178 1.99662 0 4.19203 0H28.0551C30.2505 0 32.0323 1.78178 32.0323 3.97718V27.8403C32.0323 30.0357 30.2505 31.8175 28.0551 31.8175Z" fill="white"/>
<path d="M12.4336 23.9904C19.9346 23.9904 24.039 17.7701 24.039 12.385C24.039 12.21 24.039 12.035 24.0311 11.86C24.8265 11.2873 25.5186 10.5635 26.0674 9.74415C25.3356 10.0703 24.5481 10.285 23.7209 10.3885C24.564 9.88733 25.2083 9.08394 25.5186 8.12941C24.7311 8.59872 23.8561 8.93281 22.9254 9.11576C22.1777 8.32032 21.1198 7.82715 19.9505 7.82715C17.6994 7.82715 15.8699 9.65665 15.8699 11.9077C15.8699 12.2259 15.9097 12.5361 15.9733 12.8384C12.5848 12.6714 9.57801 11.0407 7.56556 8.57486C7.21557 9.17939 7.01671 9.87937 7.01671 10.6271C7.01671 12.043 7.74055 13.2918 8.8303 14.0236C8.16214 13.9997 7.53374 13.8168 6.98489 13.5145V13.5702C6.98489 15.5429 8.39281 17.1974 10.2541 17.5712C9.9121 17.6667 9.55415 17.7144 9.18029 17.7144C8.9178 17.7144 8.66326 17.6906 8.41668 17.6428C8.93371 19.2655 10.445 20.4428 12.2268 20.4746C10.8268 21.5723 9.06893 22.2245 7.15989 22.2245C6.83376 22.2245 6.50763 22.2086 6.18945 22.1689C7.98714 23.3143 10.1348 23.9904 12.4336 23.9904Z" fill="#161818"/>
</g>
<defs>
<clipPath id="clip0_1_139">
<rect width="31.8175" height="31.8175" fill="white" transform="translate(0.214844)"/>
</clipPath>
</defs>
</svg>
